<svg width="81" height="106" viewBox="0 0 81 106" fill="none" xmlns="http://www.w3.org/2000/svg">
<mask id="mask0_2031_3" style="mask-type:luminance" maskUnits="userSpaceOnUse" x="40" y="60" width="31" height="24">
<path d="M40.2061 71.3V83.4001L70.006 65.9001L59.6061 60.1001L40.2061 71.3Z" fill="white"/>
</mask>
<g mask="url(#mask0_2031_3)">
<path d="M-3446.25 1259.89L531.471 5050.31L4416.66 973.145L438.941 -2817.28L-3446.25 1259.89Z" fill="url(#paint0_linear_2031_3)"/>
</g>
<mask id="mask1_2031_3" style="mask-type:luminance" maskUnits="userSpaceOnUse" x="10" y="60" width="31" height="24">
<path d="M10.406 66.0001L40.206 83.3V71.3L20.806 60.1001L10.406 66.0001Z" fill="white"/>
</mask>
<g mask="url(#mask1_2031_3)">
<path d="M-2179.65 -1321.43L-301.516 4641.58L3150.06 3554.46L1271.93 -2408.55L-2179.65 -1321.43Z" fill="url(#paint1_linear_2031_3)"/>
</g>
<path d="M80.4122 25.5727L69.9752 31.5977L40.1602 14.3847L40.2082 2.36066L80.4122 25.5727Z" fill="#DA125A"/>
<path d="M0 71.9833L10.437 66.0093L40.204 83.1483V95.1733L0 71.9833Z" fill="#DA125A"/>
<path d="M80.4121 71.9751L69.9751 65.9491V31.5211L80.4121 25.5521V71.9751Z" fill="#ED2C72"/>
<path d="M0 25.5599L10.437 31.5849V66.0139L0 71.9829V25.5599Z" fill="#ED2C72"/>
<path d="M40.208 95.186V83.135L69.977 65.948L80.412 71.975L40.208 95.186Z" fill="#EA1B66"/>
<path d="M40.204 2.36098V14.412L10.388 31.626L0 25.573L40.204 2.36098Z" fill="#DA125A"/>
<mask id="mask2_2031_3" style="mask-type:luminance" maskUnits="userSpaceOnUse" x="20" y="0" width="40" height="72">
<path d="M20.8062 11.2V60.1L40.2061 71.2999L59.6062 60.1V11.2L40.2061 0L20.8062 11.2Z" fill="white"/>
</mask>
<g mask="url(#mask2_2031_3)">
<path d="M1445.21 4091.43V-1858.4H-474.793V4091.43H1445.21Z" fill="url(#paint2_linear_2031_3)"/>
</g>
<path d="M54.1821 46.4951H51.9241V52.3221H50.5231V46.4951H48.2651V45.1741H54.1821V46.4951ZM45.4781 49.6301H44.1981V52.3221H42.8061V45.1741H45.4781C46.1761 45.1741 46.7411 45.3831 47.1711 45.7991C47.6081 46.2161 47.8271 46.7511 47.8271 47.4021C47.8271 48.0541 47.6081 48.5881 47.1711 49.0051C46.7411 49.4221 46.1761 49.6301 45.4781 49.6301ZM44.2081 48.4311H45.3061C45.6491 48.4311 45.9211 48.3401 46.1231 48.1581C46.3251 47.9701 46.4251 47.7211 46.4251 47.4121C46.4251 47.0961 46.3251 46.8481 46.1231 46.6661C45.9281 46.4781 45.6561 46.3841 45.3061 46.3841H44.2081V48.4311ZM39.1541 50.1141L40.4441 45.1741H41.8651L39.8901 52.3221H38.4581L36.8251 47.2311L35.1921 52.3221H33.7401L31.7541 45.1741H33.2261L34.5371 50.0941L36.1191 45.1741H37.5611L39.1541 50.1141ZM30.1041 50.5681L31.2231 50.9001C31.0881 51.3571 30.8231 51.7341 30.4261 52.0291C30.0361 52.3251 29.5491 52.4731 28.9651 52.4731C28.2521 52.4731 27.6471 52.2351 27.1501 51.7571C26.6531 51.2731 26.4041 50.6281 26.4041 49.8221C26.4041 49.0561 26.6461 48.4311 27.1301 47.9471C27.6141 47.4561 28.1851 47.2111 28.8441 47.2111C29.6101 47.2111 30.2081 47.4391 30.6381 47.8961C31.0751 48.3531 31.2931 48.9821 31.2931 49.7811C31.2931 49.8351 31.2901 49.8961 31.2831 49.9631V50.1241L31.2731 50.1951H27.7251C27.7381 50.5171 27.8661 50.7861 28.1081 51.0011C28.3501 51.2161 28.6391 51.3241 28.9751 51.3241C29.5461 51.3241 29.9221 51.0721 30.1041 50.5681ZM27.7551 49.2771H29.9731C29.9591 49.0021 29.8581 48.7701 29.6701 48.5821C29.4891 48.3941 29.2201 48.2991 28.8641 48.2991C28.5411 48.2991 28.2791 48.4001 28.0771 48.6021C27.8761 48.8041 27.7681 49.0291 27.7551 49.2771Z" fill="white"/>
<mask id="mask3_2031_3" style="mask-type:luminance" maskUnits="userSpaceOnUse" x="20" y="84" width="40" height="22">
<path d="M40.2061 95.2L58.1062 105.5C58.7062 105.9 59.6062 105.4 59.6062 104.6V84L40.2061 95.2ZM20.8062 104.6C20.8062 105.4 21.7062 105.9 22.3062 105.5L40.2061 95.2L20.8062 84V104.6Z" fill="white"/>
</mask>
<g mask="url(#mask3_2031_3)">
<path d="M-474.743 -1868.27L-505.383 4091.27L1445.16 4101.3L1475.79 -1858.24L-474.743 -1868.27Z" fill="url(#paint3_linear_2031_3)"/>
</g>
<mask id="mask4_2031_3" style="mask-type:luminance" maskUnits="userSpaceOnUse" x="29" y="16" width="22" height="19">
<path d="M49.4061 16.1001C46.2061 16.1001 43.1061 17.4001 40.9061 19.7001C40.8061 19.9001 40.8061 20.2001 41.0061 20.4001C41.1061 20.6001 41.4061 20.6001 41.6061 20.4001C43.5061 18.3001 46.1061 17.1001 48.9061 17.0001L43.6061 22.3C43.4061 22.5 43.4061 22.8001 43.6061 23.0001C43.7061 23.2001 44.0061 23.2001 44.2061 23.0001L50.3061 16.9001C50.7061 16.6001 50.4061 16.1001 50.0061 16.1001H49.4061ZM35.5061 25.2001L32.0061 28.7001L31.6061 27.8C31.5061 27.5 31.2061 27.4001 31.0061 27.5001C30.7061 27.6001 30.6061 27.9001 30.7061 28.1001L32.0061 31.3L29.2061 34.0001C29.1061 34.2001 29.1061 34.5001 29.2061 34.7001C29.4061 34.9001 29.7061 34.9001 29.9061 34.7001L32.6061 32.0001L35.8061 33.2001C36.1061 33.3001 36.4061 33.2001 36.5061 33.0001C36.6061 32.7001 36.4061 32.4001 36.2061 32.4001L35.2061 32.0001L38.7061 28.5001C38.9061 28.3001 38.9061 28 38.7061 27.8C38.6061 27.6 38.3061 27.6 38.1061 27.8L34.3061 31.6001L32.9061 31.1001L32.3061 29.7001L36.1061 25.9001C36.3061 25.7001 36.3061 25.4001 36.1061 25.2001C36.0061 25.1001 35.9061 25.1001 35.8061 25.1001C35.7061 25.1001 35.5061 25.1001 35.5061 25.2001Z" fill="white"/>
</mask>
<g mask="url(#mask4_2031_3)">
<path d="M-980.688 4048.1L1431.22 4254.68L1951.1 -1815.07L-460.811 -2021.65L-980.688 4048.1Z" fill="url(#paint4_linear_2031_3)"/>
</g>
<mask id="mask5_2031_3" style="mask-type:luminance" maskUnits="userSpaceOnUse" x="29" y="16" width="20" height="17">
<path d="M29.6061 16.1001C29.2061 16.1001 29.0061 16.6001 29.3061 16.9001L44.7061 32.3C44.9061 32.5 45.206 32.5 45.306 32.3C45.506 32.1 45.506 31.8001 45.306 31.6001L30.7061 17.0001C33.5061 17.1001 36.1061 18.3001 38.0061 20.4001L47.306 29.7001C47.506 29.9001 47.806 29.9001 48.0061 29.7001C48.1061 29.5001 48.1061 29.2001 48.0061 29.0001L38.7061 19.7001C36.5061 17.4001 33.4061 16.1001 30.2061 16.1001H29.6061Z" fill="white"/>
</mask>
<g mask="url(#mask5_2031_3)">
<path d="M-980.688 4048.1L1431.22 4254.68L1951.1 -1815.07L-460.811 -2021.65L-980.688 4048.1Z" fill="url(#paint5_linear_2031_3)"/>
</g>
<mask id="mask6_2031_3" style="mask-type:luminance" maskUnits="userSpaceOnUse" x="43" y="27" width="6" height="7">
<path d="M48.006 27.7999L46.706 31.1L43.406 32.4C43.206 32.4 43.106 32.7 43.206 33C43.306 33.2 43.506 33.3 43.806 33.2L47.506 31.7999L48.906 28.1C49.006 27.9 48.906 27.6 48.606 27.5H48.506C48.306 27.5 48.106 27.5999 48.006 27.7999Z" fill="white"/>
</mask>
<g mask="url(#mask6_2031_3)">
<path d="M-980.688 4048.1L1431.22 4254.68L1951.1 -1815.07L-460.811 -2021.65L-980.688 4048.1Z" fill="url(#paint6_linear_2031_3)"/>
</g>
<mask id="mask7_2031_3" style="mask-type:luminance" maskUnits="userSpaceOnUse" x="46" y="31" width="5" height="4">
<path d="M46.806 31.1C46.706 31.3 46.706 31.5999 46.806 31.7999L49.706 34.7C49.906 34.9 50.206 34.9 50.406 34.7C50.606 34.5 50.606 34.2 50.406 34L47.506 31.1C47.406 31 47.306 31 47.206 31C47.006 31 46.906 31 46.806 31.1Z" fill="white"/>
</mask>
<g mask="url(#mask7_2031_3)">
<path d="M-980.688 4048.1L1431.22 4254.68L1951.1 -1815.07L-460.811 -2021.65L-980.688 4048.1Z" fill="url(#paint7_linear_2031_3)"/>
</g>
<defs>
<linearGradient id="paint0_linear_2031_3" x1="47.1394" y1="67.0376" x2="57.4085" y2="76.8233" gradientUnits="userSpaceOnUse">
<stop stop-color="#EF7D22"/>
<stop offset="0.282143" stop-color="#EF711B"/>
<stop offset="0.72381" stop-color="#EE520C"/>
<stop offset="1" stop-color="#EE3B00"/>
</linearGradient>
<linearGradient id="paint1_linear_2031_3" x1="23.3646" y1="62.3913" x2="27.4282" y2="75.2933" gradientUnits="userSpaceOnUse">
<stop stop-color="#EF7D22"/>
<stop offset="0.282143" stop-color="#EF711B"/>
<stop offset="0.72381" stop-color="#EE520C"/>
<stop offset="1" stop-color="#EE3B00"/>
</linearGradient>
<linearGradient id="paint2_linear_2031_3" x1="40.2065" y1="103.497" x2="40.2065" y2="-0.0231586" gradientUnits="userSpaceOnUse">
<stop stop-color="#6819CB"/>
<stop offset="0.888095" stop-color="#B0239B"/>
<stop offset="1" stop-color="#EC2C72"/>
</linearGradient>
<linearGradient id="paint3_linear_2031_3" x1="40.259" y1="83.9968" x2="40.1436" y2="106.444" gradientUnits="userSpaceOnUse">
<stop stop-color="#821DBA"/>
<stop offset="1" stop-color="#ED2C72"/>
</linearGradient>
<linearGradient id="paint4_linear_2031_3" x1="28.7997" y1="24.495" x2="54.2458" y2="26.6745" gradientUnits="userSpaceOnUse">
<stop stop-color="#BB85FF"/>
<stop offset="0.189286" stop-color="#BC84FD"/>
<stop offset="1" stop-color="#FF5E5E"/>
</linearGradient>
<linearGradient id="paint5_linear_2031_3" x1="28.8873" y1="23.4723" x2="54.3334" y2="25.6517" gradientUnits="userSpaceOnUse">
<stop stop-color="#BB85FF"/>
<stop offset="0.189286" stop-color="#BC84FD"/>
<stop offset="1" stop-color="#FF5E5E"/>
</linearGradient>
<linearGradient id="paint6_linear_2031_3" x1="28.427" y1="28.8472" x2="53.873" y2="31.0266" gradientUnits="userSpaceOnUse">
<stop stop-color="#BB85FF"/>
<stop offset="0.189286" stop-color="#BC84FD"/>
<stop offset="1" stop-color="#FF5E5E"/>
</linearGradient>
<linearGradient id="paint7_linear_2031_3" x1="28.2282" y1="31.1675" x2="53.6743" y2="33.347" gradientUnits="userSpaceOnUse">
<stop stop-color="#BB85FF"/>
<stop offset="0.189286" stop-color="#BC84FD"/>
<stop offset="1" stop-color="#FF5E5E"/>
</linearGradient>
</defs>
</svg>