<svg width="80" height="106" viewBox="0 0 80 106" fill="none" xmlns="http://www.w3.org/2000/svg">
<mask id="mask0_2031_2" style="mask-type:luminance" maskUnits="userSpaceOnUse" x="40" y="59" width="30" height="24">
<path d="M40 71.0002V82.9001L69.7 65.6001L59.3 59.8003L40 71.0002Z" fill="white"/>
</mask>
<g mask="url(#mask0_2031_2)">
<path d="M-3446.46 792.485L531.265 4582.91L4416.46 505.745L438.735 -3284.68L-3446.46 792.485Z" fill="url(#paint0_linear_2031_2)"/>
</g>
<mask id="mask1_2031_2" style="mask-type:luminance" maskUnits="userSpaceOnUse" x="10" y="59" width="30" height="24">
<path d="M10.3999 65.7002L39.9999 82.9001V71.0002L20.6999 59.8003L10.3999 65.7002Z" fill="white"/>
</mask>
<g mask="url(#mask1_2031_2)">
<path d="M-2179.86 -1788.83L-301.722 4174.18L3149.86 3087.06L1271.72 -2875.95L-2179.86 -1788.83Z" fill="url(#paint1_linear_2031_2)"/>
</g>
<path d="M80.0001 25.4508L69.6171 31.4458L39.9541 14.3198L40.0021 2.3578L80.0001 25.4508Z" fill="#DA125A"/>
<path d="M0 71.6233L10.384 65.6793L39.998 82.7313V94.6943L0 71.6233Z" fill="#DA125A"/>
<path d="M79.9999 71.6152L69.6169 65.6202V31.3692L79.9999 25.4292V71.6152Z" fill="#ED2C72"/>
<path d="M0 25.438L10.383 31.433V65.684L0 71.624V25.438Z" fill="#ED2C72"/>
<path d="M40.002 94.707V82.718L69.618 65.618L80 71.614L40.002 94.707Z" fill="#EA1B66"/>
<path d="M39.998 2.35766V14.3467L10.335 31.4727L0 25.4507L39.998 2.35766Z" fill="#DA125A"/>
<mask id="mask2_2031_2" style="mask-type:luminance" maskUnits="userSpaceOnUse" x="20" y="0" width="40" height="71">
<path d="M20.7 11.0999V59.8L39.9999 71L59.2999 59.8V11.0999L39.9999 0L20.7 11.0999Z" fill="white"/>
</mask>
<g mask="url(#mask2_2031_2)">
<path d="M1445 3624.03V-2325.8H-475V3624.03H1445Z" fill="url(#paint2_linear_2031_2)"/>
</g>
<path d="M55.6085 46.2659H53.3615V52.0629H51.9675V46.2659H49.7215V44.9519H55.6085V46.2659ZM46.9495 49.3849H45.6755V52.0629H44.2915V44.9519H46.9495C47.6445 44.9519 48.2055 45.1589 48.6345 45.5739C49.0685 45.9889 49.2855 46.5199 49.2855 47.1689C49.2855 47.8169 49.0685 48.3489 48.6345 48.7629C48.2055 49.1779 47.6445 49.3849 46.9495 49.3849ZM45.6855 48.1919H46.7785C47.1195 48.1919 47.3905 48.1009 47.5915 47.9209C47.7915 47.7339 47.8915 47.4859 47.8915 47.1789C47.8915 46.8639 47.7915 46.6169 47.5915 46.4359C47.3975 46.2489 47.1265 46.1559 46.7785 46.1559H45.6855V48.1919ZM40.8965 49.3849H39.6225V52.0629H38.2385V44.9519H40.8965C41.5915 44.9519 42.1535 45.1589 42.5815 45.5739C43.0155 45.9889 43.2335 46.5199 43.2335 47.1689C43.2335 47.8169 43.0155 48.3489 42.5815 48.7629C42.1535 49.1779 41.5915 49.3849 40.8965 49.3849ZM39.6325 48.1919H40.7255C41.0665 48.1919 41.3375 48.1009 41.5385 47.9209C41.7385 47.7339 41.8395 47.4859 41.8395 47.1789C41.8395 46.8639 41.7385 46.6169 41.5385 46.4359C41.3445 46.2489 41.0735 46.1559 40.7255 46.1559H39.6325V48.1919ZM33.7985 52.2129C32.7755 52.2129 31.9135 51.8719 31.2115 51.1899C30.5095 50.5079 30.1585 49.6159 30.1585 48.5129C30.1585 47.4159 30.5125 46.5229 31.2215 45.8349C31.9365 45.1459 32.7895 44.8019 33.7785 44.8019C34.6885 44.8019 35.4175 45.0319 35.9655 45.4939C36.5205 45.9549 36.8775 46.5099 37.0385 47.1589L35.7345 47.5699C35.6345 47.1689 35.4235 46.8309 35.1025 46.5569C34.7815 46.2759 34.3405 46.1359 33.7785 46.1359C33.1975 46.1359 32.6855 46.3429 32.2445 46.7569C31.8095 47.1719 31.5925 47.7569 31.5925 48.5129C31.5925 49.2349 31.8065 49.8059 32.2345 50.2269C32.6695 50.6489 33.1905 50.8589 33.7985 50.8589C34.3535 50.8589 34.7955 50.7149 35.1225 50.4279C35.4575 50.1409 35.6805 49.7999 35.7945 49.4049L37.0885 49.7959C37.0145 50.0839 36.8945 50.3639 36.7275 50.6389C36.5665 50.9129 36.3565 51.1699 36.0955 51.4109C35.8345 51.6509 35.5035 51.8459 35.1025 51.9929C34.7085 52.1399 34.2735 52.2129 33.7985 52.2129ZM28.2455 50.3179L29.3585 50.6489C29.2245 51.1029 28.9605 51.4779 28.5665 51.7719C28.1785 52.0659 27.6935 52.2129 27.1125 52.2129C26.4035 52.2129 25.8015 51.9759 25.3065 51.5009C24.8125 51.0199 24.5645 50.3779 24.5645 49.5759C24.5645 48.8129 24.8055 48.1919 25.2865 47.7099C25.7685 47.2219 26.3365 46.9779 26.9915 46.9779C27.7545 46.9779 28.3495 47.2049 28.7775 47.6599C29.2115 48.1149 29.4285 48.7399 29.4285 49.5359C29.4285 49.5889 29.4255 49.6489 29.4185 49.7159V49.8759L29.4085 49.9469H25.8785C25.8915 50.2669 26.0185 50.5349 26.2595 50.7489C26.5005 50.9629 26.7875 51.0699 27.1225 51.0699C27.6905 51.0699 28.0645 50.8189 28.2455 50.3179ZM25.9085 49.0339H28.1155C28.1015 48.7599 28.0015 48.5289 27.8145 48.3419C27.6335 48.1549 27.3665 48.0609 27.0115 48.0609C26.6905 48.0609 26.4305 48.1619 26.2295 48.3619C26.0295 48.5629 25.9225 48.7869 25.9085 49.0339Z" fill="white"/>
<mask id="mask3_2031_2" style="mask-type:luminance" maskUnits="userSpaceOnUse" x="20" y="83" width="40" height="23">
<path d="M39.9999 94.7002L57.7999 104.9C58.4999 105.3 59.2999 104.9 59.2999 104.1V83.6001L39.9999 94.7002ZM20.7 104.1C20.7 104.9 21.5 105.3 22.2 104.9L39.9999 94.7002L20.7 83.6001V104.1Z" fill="white"/>
</mask>
<g mask="url(#mask3_2031_2)">
<path d="M-474.949 -2335.67L-505.589 3623.87L1444.95 3633.9L1475.59 -2325.64L-474.949 -2335.67Z" fill="url(#paint3_linear_2031_2)"/>
</g>
<mask id="mask4_2031_2" style="mask-type:luminance" maskUnits="userSpaceOnUse" x="28" y="16" width="23" height="19">
<path d="M49.2 16C46 16 42.9 17.2999 40.7 19.5999C40.5 19.7999 40.6 20.1 40.7 20.3C40.9 20.5 41.2 20.5 41.4 20.3C43.3 18.3 45.9 17.0999 48.7 16.8999L43.2999 22.2C43.1999 22.4 43.1999 22.6999 43.2999 22.8999C43.4999 23.0999 43.7999 23.0999 43.9999 22.8999L50.0999 16.8C50.3999 16.5 50.1999 16 49.7999 16H49.2ZM35.2999 25.0999L31.7999 28.5999L31.3999 27.5999C31.2999 27.3999 31.0999 27.2999 30.7999 27.3999C30.5999 27.3999 30.5 27.7 30.6 28L31.7999 31.0999L29.1 33.8999C28.9 33.9999 28.9 34.3 29.1 34.5C29.3 34.7 29.5999 34.7 29.7999 34.5L32.4999 31.8L35.7 33.0999C35.9 33.1999 36.1999 33 36.2999 32.8C36.3999 32.6 36.2999 32.3 35.9999 32.2L35.1 31.8L38.4999 28.3999C38.6999 28.1999 38.6999 27.9 38.4999 27.7C38.3999 27.5 38.1 27.5 37.9 27.7L34.1 31.5L32.7 30.8999L32.2 29.5L35.8999 25.7C36.0999 25.6 36.0999 25.2999 35.8999 25.0999C35.7999 24.9999 35.7 24.8999 35.6 24.8999C35.5 24.8999 35.3999 24.9999 35.2999 25.0999Z" fill="white"/>
</mask>
<g mask="url(#mask4_2031_2)">
<path d="M-980.894 3580.7L1431.02 3787.28L1950.89 -2282.47L-461.017 -2489.05L-980.894 3580.7Z" fill="url(#paint4_linear_2031_2)"/>
</g>
<mask id="mask5_2031_2" style="mask-type:luminance" maskUnits="userSpaceOnUse" x="28" y="16" width="20" height="17">
<path d="M29.4999 16C28.9999 16 28.7999 16.5 29.0999 16.8L44.4999 32.0999C44.5999 32.2999 44.8999 32.2999 45.0999 32.0999C45.2999 31.9999 45.2999 31.7 45.0999 31.5L30.5999 16.8999C33.2999 17.0999 35.8999 18.3 37.7999 20.3L47.0999 29.5C47.1999 29.7 47.4999 29.7 47.6999 29.5C47.8999 29.3 47.8999 28.9999 47.6999 28.8999L38.4999 19.5999C36.2999 17.2999 33.1999 16 29.9999 16H29.4999Z" fill="white"/>
</mask>
<g mask="url(#mask5_2031_2)">
<path d="M-980.894 3580.7L1431.02 3787.28L1950.89 -2282.47L-461.017 -2489.05L-980.894 3580.7Z" fill="url(#paint5_linear_2031_2)"/>
</g>
<mask id="mask6_2031_2" style="mask-type:luminance" maskUnits="userSpaceOnUse" x="42" y="27" width="7" height="7">
<path d="M47.7999 27.6001L46.4999 30.9001L43.1999 32.2002C42.9999 32.3002 42.8999 32.6003 42.8999 32.8003C42.9999 33.0003 43.2999 33.2001 43.4999 33.1001L47.1999 31.6001L48.6999 28.0002C48.6999 27.7002 48.5999 27.4001 48.3999 27.4001C48.2999 27.3001 48.2999 27.3003 48.1999 27.3003C47.9999 27.3003 47.8999 27.4001 47.7999 27.6001Z" fill="white"/>
</mask>
<g mask="url(#mask6_2031_2)">
<path d="M-980.894 3580.7L1431.02 3787.28L1950.89 -2282.47L-461.018 -2489.05L-980.894 3580.7Z" fill="url(#paint6_linear_2031_2)"/>
</g>
<mask id="mask7_2031_2" style="mask-type:luminance" maskUnits="userSpaceOnUse" x="46" y="30" width="5" height="5">
<path d="M46.6 31.0005C46.4 31.2005 46.4 31.5004 46.6 31.7004L49.5 34.5005C49.6 34.7005 49.9 34.7005 50.1 34.5005C50.3 34.3005 50.3 34.0004 50.1 33.9004L47.3 31.0005C47.2 30.9005 47 30.9004 46.9 30.9004C46.8 30.9004 46.7 30.9005 46.6 31.0005Z" fill="white"/>
</mask>
<g mask="url(#mask7_2031_2)">
<path d="M-980.894 3580.7L1431.02 3787.28L1950.89 -2282.47L-461.017 -2489.05L-980.894 3580.7Z" fill="url(#paint7_linear_2031_2)"/>
</g>
<defs>
<linearGradient id="paint0_linear_2031_2" x1="46.8978" y1="66.7029" x2="57.1144" y2="76.4384" gradientUnits="userSpaceOnUse">
<stop stop-color="#EF7D22"/>
<stop offset="0.282143" stop-color="#EF711B"/>
<stop offset="0.72381" stop-color="#EE520C"/>
<stop offset="1" stop-color="#EE3B00"/>
</linearGradient>
<linearGradient id="paint1_linear_2031_2" x1="23.245" y1="62.0807" x2="27.2878" y2="74.9166" gradientUnits="userSpaceOnUse">
<stop stop-color="#EF7D22"/>
<stop offset="0.282143" stop-color="#EF711B"/>
<stop offset="0.72381" stop-color="#EE520C"/>
<stop offset="1" stop-color="#EE3B00"/>
</linearGradient>
<linearGradient id="paint2_linear_2031_2" x1="40.0001" y1="102.974" x2="40.0001" y2="-0.0151402" gradientUnits="userSpaceOnUse">
<stop stop-color="#6819CB"/>
<stop offset="0.888095" stop-color="#B0239B"/>
<stop offset="1" stop-color="#EC2C72"/>
</linearGradient>
<linearGradient id="paint3_linear_2031_2" x1="40.0528" y1="83.5755" x2="39.9379" y2="105.908" gradientUnits="userSpaceOnUse">
<stop stop-color="#821DBA"/>
<stop offset="1" stop-color="#ED2C72"/>
</linearGradient>
<linearGradient id="paint4_linear_2031_2" x1="28.6522" y1="24.3782" x2="53.9679" y2="26.5465" gradientUnits="userSpaceOnUse">
<stop stop-color="#BB85FF"/>
<stop offset="0.189286" stop-color="#BC84FD"/>
<stop offset="1" stop-color="#FF5E5E"/>
</linearGradient>
<linearGradient id="paint5_linear_2031_2" x1="28.7394" y1="23.3603" x2="54.055" y2="25.5286" gradientUnits="userSpaceOnUse">
<stop stop-color="#BB85FF"/>
<stop offset="0.189286" stop-color="#BC84FD"/>
<stop offset="1" stop-color="#FF5E5E"/>
</linearGradient>
<linearGradient id="paint6_linear_2031_2" x1="28.2811" y1="28.7081" x2="53.5968" y2="30.8764" gradientUnits="userSpaceOnUse">
<stop stop-color="#BB85FF"/>
<stop offset="0.189286" stop-color="#BC84FD"/>
<stop offset="1" stop-color="#FF5E5E"/>
</linearGradient>
<linearGradient id="paint7_linear_2031_2" x1="28.0835" y1="31.0165" x2="53.3992" y2="33.1848" gradientUnits="userSpaceOnUse">
<stop stop-color="#BB85FF"/>
<stop offset="0.189286" stop-color="#BC84FD"/>
<stop offset="1" stop-color="#FF5E5E"/>
</linearGradient>
</defs>
</svg>