<svg width="44" height="42" viewBox="0 0 44 42" fill="none" xmlns="http://www.w3.org/2000/svg">
<path d="M30.4314 4.57404C30.4314 5.34003 30.4234 6.10704 30.4344 6.87304C30.4414 7.38103 30.7194 7.65904 31.2284 7.67204C31.7384 7.68404 32.2504 7.68204 32.7604 7.67304C33.3214 7.66304 33.5954 7.39104 33.5974 6.82904C33.6034 5.32504 33.6034 3.82104 33.5974 2.31704C33.5954 1.76004 33.3204 1.48003 32.7604 1.46304C32.2634 1.44904 31.7664 1.44804 31.2704 1.46404C30.7114 1.48104 30.4384 1.76304 30.4324 2.31804C30.4254 3.07004 30.4314 3.82204 30.4314 4.57404ZM13.1974 4.57004C13.1974 3.83204 13.2054 3.09404 13.1954 2.35604C13.1864 1.75604 12.9024 1.47504 12.3004 1.46204C11.8184 1.45103 11.3354 1.44804 10.8534 1.46304C10.3194 1.48003 10.0184 1.75504 10.0134 2.27904C9.99937 3.81104 9.99837 5.34404 10.0144 6.87604C10.0194 7.40704 10.3164 7.66304 10.8594 7.67304C11.3274 7.68204 11.7964 7.67904 12.2644 7.67504C12.9264 7.66904 13.1904 7.40704 13.1964 6.74104C13.2024 6.01704 13.1974 5.29404 13.1974 4.57004ZM14.6524 5.33204C14.6524 5.84804 14.6564 6.33004 14.6514 6.81204C14.6354 8.18604 13.7184 9.11204 12.3524 9.13104C11.8984 9.13704 11.4434 9.13404 10.9884 9.13204C9.45337 9.12704 8.55637 8.23004 8.54937 6.69504C8.54737 6.24504 8.54937 5.79604 8.54937 5.32804C8.36637 5.31804 8.24037 5.30604 8.11537 5.30504C6.48137 5.30404 4.84737 5.30204 3.21337 5.30604C2.06137 5.30804 1.45337 5.92104 1.45237 7.07204C1.45137 9.20304 1.45237 11.334 1.45237 13.466V13.881H42.2004V13.44C42.2004 11.309 42.2014 9.17804 42.1994 7.04604C42.1984 5.91804 41.5914 5.30904 40.4604 5.30604C38.7984 5.30104 37.1354 5.30404 35.4734 5.30604C35.3394 5.30604 35.2054 5.32704 35.0524 5.33904C35.0524 5.89804 35.0604 6.40903 35.0514 6.92004C35.0264 8.17004 34.1224 9.08904 32.8694 9.12704C32.3304 9.14404 31.7904 9.13904 31.2504 9.13004C29.8974 9.10804 28.9914 8.19304 28.9784 6.84004C28.9734 6.34604 28.9774 5.85204 28.9774 5.33204H14.6524ZM0.000366211 33.488C0.213366 33.136 0.485366 32.871 0.934366 33.011C1.37437 33.15 1.45937 33.506 1.45637 33.927C1.44637 35.533 1.45037 37.138 1.45337 38.744C1.45537 39.804 2.08437 40.448 3.15037 40.448C13.0104 40.452 22.8714 40.451 32.7314 40.45C32.8294 40.45 32.9274 40.44 33.0714 40.433C33.0794 40.271 33.0944 40.122 33.0944 39.973C33.0964 38.197 33.0934 36.421 33.0964 34.645C33.0994 32.795 34.2494 31.643 36.1024 31.634C36.9264 31.63 37.7504 31.632 38.5744 31.635C38.9474 31.636 39.2494 31.772 39.3754 32.147C39.5374 32.631 39.1974 33.075 38.6414 33.085C37.8174 33.1 36.9934 33.088 36.1694 33.09C35.0464 33.093 34.5524 33.583 34.5514 34.696C34.5504 36.103 34.5514 37.51 34.5514 38.916V39.408C34.6994 39.291 34.7884 39.233 34.8624 39.161C37.1314 36.97 39.3964 34.775 41.6684 32.587C42.0154 32.253 42.2034 31.874 42.2024 31.384C42.1984 26.156 42.2004 20.927 42.2004 15.699V15.405H1.45237V15.897C1.45237 18.881 1.45037 21.864 1.45437 24.848C1.45437 25.226 1.33537 25.526 0.956366 25.648C0.561366 25.776 0.265366 25.623 0.0633659 25.269C0.0513659 25.247 0.0213662 25.235 0.000366211 25.218V6.37604C0.0163662 6.35304 0.0403652 6.33204 0.0473652 6.30604C0.541365 4.61204 1.55437 3.84804 3.31037 3.84704C4.90137 3.84504 6.49337 3.84703 8.08437 3.84504C8.23337 3.84504 8.38137 3.83104 8.54937 3.82304C8.54937 3.28604 8.54237 2.80304 8.55137 2.32104C8.57637 0.951038 9.49837 0.0280342 10.8624 0.00403595C11.3034 -0.00396347 11.7434 0.00203705 12.1844 0.0030365C13.7364 0.00703812 14.6474 0.915035 14.6524 2.46304C14.6534 2.91304 14.6524 3.36304 14.6524 3.82204H28.9804C28.9804 3.24903 28.9684 2.69804 28.9834 2.14904C29.0114 1.09104 29.7674 0.199039 30.8164 0.061039C31.4174 -0.0179596 32.0344 0.00503922 32.6444 0.00503922C34.1444 0.00603867 35.0484 0.919037 35.0534 2.42604C35.0554 2.88904 35.0534 3.35204 35.0534 3.84604H35.5834C37.1894 3.84604 38.7944 3.84104 40.4004 3.85104C40.7244 3.85303 41.0574 3.87104 41.3714 3.94704C42.7684 4.28504 43.6514 5.47404 43.6514 7.00104C43.6534 15.057 43.6454 23.113 43.6614 31.168C43.6634 32.205 43.3194 33.025 42.5714 33.74C40.0964 36.105 37.6344 38.485 35.1914 40.883C34.4644 41.596 33.6444 41.916 32.6314 41.915C22.8854 41.902 13.1394 41.907 3.39237 41.907C3.25037 41.907 3.10837 41.91 2.96637 41.903C1.52037 41.835 0.441365 40.959 0.0783653 39.565C0.0613653 39.498 0.0263662 39.435 0.000366211 39.371V33.488Z" fill="#9A20AA"/>
<path d="M0 28.3726C0.222 28.0656 0.465 27.7906 0.901 27.9116C1.258 28.0106 1.442 28.2576 1.449 28.6256C1.457 29.0066 1.443 29.3886 1.455 29.7686C1.468 30.1696 1.435 30.5536 1.005 30.7276C0.562 30.9056 0.256 30.6656 0 30.3336V28.3726Z" fill="#9A20AA"/>
<path d="M24.1901 30.4705C24.1901 30.0445 24.1231 29.6915 23.9891 29.4115C23.8541 29.1315 23.6701 28.9095 23.4381 28.7445C23.2061 28.5805 22.9371 28.4645 22.6321 28.3975C22.3261 28.3305 22.0091 28.2975 21.6791 28.2975C21.4101 28.2975 21.0741 28.3155 20.6711 28.3525C20.2681 28.3885 19.9251 28.4375 19.6441 28.4985V29.5385C19.6441 30.3065 19.7021 30.9265 19.8191 31.4015C19.9341 31.8765 20.0941 32.2475 20.2951 32.5155C20.4971 32.7835 20.7411 32.9655 21.0281 33.0635C21.3151 33.1605 21.6241 33.2095 21.9541 33.2095C22.2591 33.2095 22.5491 33.1695 22.8251 33.0905C23.0991 33.0125 23.3381 32.8745 23.5391 32.6795C23.7411 32.4855 23.8991 32.2235 24.0161 31.8945C24.1321 31.5655 24.1901 31.1525 24.1901 30.6525V30.4705ZM26.6831 30.6615C26.6831 31.3455 26.5791 31.9665 26.3711 32.5225C26.1631 33.0785 25.8581 33.5545 25.4551 33.9515C25.0511 34.3495 24.5561 34.6575 23.9701 34.8775C23.3831 35.0975 22.7111 35.2075 21.9541 35.2075C21.2691 35.2075 20.6341 35.0975 20.0481 34.8775C19.4611 34.6575 18.9541 34.3185 18.5261 33.8605C18.0981 33.4025 17.7631 32.8155 17.5181 32.1005C17.2741 31.3855 17.1521 30.5335 17.1521 29.5435V27.4355C17.1521 26.3365 17.2591 25.3955 17.4731 24.6135C17.6861 23.8315 18.0071 23.1955 18.4351 22.7065C18.8621 22.2185 19.3911 21.8615 20.0201 21.6345C20.6491 21.4085 21.3861 21.2955 22.2291 21.2955C23.0351 21.2955 23.7261 21.3385 24.3001 21.4225C24.8741 21.5075 25.3141 21.5805 25.6201 21.6405C25.7541 21.6655 25.8581 21.7045 25.9311 21.7595C26.0041 21.8135 26.0411 21.9015 26.0411 22.0225V23.1485C26.0411 23.4035 25.9251 23.5315 25.6931 23.5315H25.6201C25.4481 23.5075 25.2261 23.4805 24.9511 23.4495C24.6761 23.4185 24.3831 23.3915 24.0711 23.3665C23.7591 23.3425 23.4411 23.3245 23.1181 23.3115C22.7941 23.2995 22.4971 23.2935 22.2291 23.2935C21.7641 23.2935 21.3701 23.3495 21.0471 23.4595C20.7231 23.5695 20.4601 23.7575 20.2591 24.0215C20.0571 24.2855 19.9071 24.6335 19.8101 25.0635C19.7111 25.4935 19.6561 26.0215 19.6441 26.6475C19.9381 26.5865 20.3101 26.5375 20.7631 26.5015C21.2151 26.4645 21.6911 26.4455 22.1921 26.4455C22.7911 26.4455 23.3591 26.5165 23.8971 26.6565C24.4341 26.7975 24.9111 27.0235 25.3261 27.3345C25.7421 27.6465 26.0721 28.0615 26.3161 28.5815C26.5611 29.1005 26.6831 29.7335 26.6831 30.4785V30.6615Z" fill="#9A20AA"/>
</svg>