<svg width="42" height="42" viewBox="0 0 42 42" fill="none" xmlns="http://www.w3.org/2000/svg">
<path d="M20.957 2.45604C10.755 2.45604 2.456 10.755 2.456 20.957C2.456 31.159 10.755 39.459 20.957 39.459C31.159 39.459 39.458 31.159 39.458 20.957C39.458 10.755 31.159 2.45604 20.957 2.45604ZM20.957 41.915C9.401 41.915 0 32.513 0 20.957C0 9.40204 9.401 3.8147e-05 20.957 3.8147e-05C32.513 3.8147e-05 41.914 9.40204 41.914 20.957C41.914 32.513 32.513 41.915 20.957 41.915Z" fill="#9A20AA"/>
<path d="M9.66906 30.5087C10.1491 30.0287 10.9261 30.0287 11.4061 30.5087C11.8851 30.9877 11.8851 31.7657 11.4061 32.2457C10.9261 32.7247 10.1491 32.7247 9.66906 32.2457C9.19006 31.7657 9.19006 30.9877 9.66906 30.5087Z" fill="#9A20AA"/>
<path d="M30.5084 9.66937C30.9874 9.19037 31.7654 9.19037 32.2454 9.66937C32.7244 10.1494 32.7244 10.9264 32.2454 11.4064C31.7654 11.8854 30.9874 11.8854 30.5084 11.4064C30.0284 10.9264 30.0284 10.1494 30.5084 9.66937Z" fill="#9A20AA"/>
<path d="M11.4058 9.66937C11.8848 10.1494 11.8848 10.9264 11.4058 11.4064C10.9268 11.8854 10.1488 11.8854 9.66882 11.4064C9.18982 10.9264 9.18982 10.1494 9.66882 9.66937C10.1488 9.19037 10.9268 9.19037 11.4058 9.66937Z" fill="#9A20AA"/>
<path d="M32.2452 30.5087C32.7252 30.9877 32.7252 31.7657 32.2452 32.2457C31.7662 32.7247 30.9882 32.7247 30.5082 32.2457C30.0292 31.7657 30.0292 30.9877 30.5082 30.5087C30.9882 30.0287 31.7662 30.0287 32.2452 30.5087Z" fill="#9A20AA"/>
<path d="M20.957 9.90576C20.279 9.90576 19.729 9.35576 19.729 8.67776V6.22176C19.729 5.54376 20.279 4.99376 20.957 4.99376C21.635 4.99376 22.185 5.54376 22.185 6.22176V8.67776C22.185 9.35576 21.635 9.90576 20.957 9.90576Z" fill="#9A20AA"/>
<path d="M20.957 36.9209C20.279 36.9209 19.729 36.3709 19.729 35.6929V33.2369C19.729 32.5589 20.279 32.0089 20.957 32.0089C21.635 32.0089 22.185 32.5589 22.185 33.2369V35.6929C22.185 36.3709 21.635 36.9209 20.957 36.9209Z" fill="#9A20AA"/>
<path d="M8.67741 22.1855H6.22141C5.54341 22.1855 4.99341 21.6355 4.99341 20.9575C4.99341 20.2795 5.54341 19.7295 6.22141 19.7295H8.67741C9.35541 19.7295 9.90541 20.2795 9.90541 20.9575C9.90541 21.6355 9.35541 22.1855 8.67741 22.1855Z" fill="#9A20AA"/>
<path d="M35.6928 22.1855H33.2368C32.5588 22.1855 32.0088 21.6355 32.0088 20.9575C32.0088 20.2795 32.5588 19.7295 33.2368 19.7295H35.6928C36.3708 19.7295 36.9208 20.2795 36.9208 20.9575C36.9208 21.6355 36.3708 22.1855 35.6928 22.1855Z" fill="#9A20AA"/>
<path d="M28.325 29.5532C28.011 29.5532 27.696 29.4332 27.457 29.1932L20.089 21.8252C19.859 21.5962 19.729 21.2832 19.729 20.9572V13.5892C19.729 12.9112 20.279 12.3612 20.957 12.3612C21.635 12.3612 22.185 12.9112 22.185 13.5892V20.4492L29.193 27.4572C29.673 27.9362 29.673 28.7142 29.193 29.1932C28.954 29.4332 28.639 29.5532 28.325 29.5532Z" fill="#9A20AA"/>
</svg>