<svg width="33" height="36" viewBox="0 0 33 36" fill="none" xmlns="http://www.w3.org/2000/svg">
<path d="M22.357 34.3992C17.51 34.3992 13.568 30.4572 13.568 25.6102C13.568 20.7642 17.503 16.8222 22.357 16.8222C27.211 16.8222 31.145 20.7642 31.145 25.6102C31.145 30.4572 27.204 34.3992 22.357 34.3992ZM4.009 29.3952C2.611 29.3952 1.496 28.2732 1.496 26.8742V4.04621C1.496 2.64021 2.611 1.49621 4.009 1.49621H15.334V6.20121C15.334 8.01821 16.807 9.49921 18.625 9.49921H22.963V15.3412C22.738 15.3332 22.559 15.3112 22.364 15.3112C19.754 15.3112 17.353 16.3132 15.543 17.8842H6.044C5.632 17.8842 5.296 18.2202 5.296 18.6322C5.296 19.0432 5.632 19.3802 6.044 19.3802H14.152C13.621 20.1282 13.179 20.8762 12.835 21.6992H6.044C5.632 21.6992 5.296 22.0352 5.296 22.4472C5.296 22.8582 5.632 23.1952 6.044 23.1952H12.349C12.162 23.9432 12.065 24.7732 12.065 25.6032C12.065 26.9492 12.327 28.2812 12.798 29.4032H4.009V29.3952ZM16.83 2.62521L21.938 8.00321H18.625C17.637 8.00321 16.83 7.18821 16.83 6.20121V2.62521ZM24.459 15.5352V8.74421C24.459 8.54921 24.369 8.37021 24.242 8.22821L16.628 0.232208C16.485 0.0822067 16.283 0.000209808 16.082 0.000209808H4.009C1.78 0.000209808 0 1.81721 0 4.04621V26.8742C0 29.1032 1.78 30.8912 4.009 30.8912H13.539C15.341 33.8832 18.617 35.8872 22.349 35.8872C28.019 35.8872 32.649 31.2802 32.649 25.6032C32.657 20.6442 29.096 16.5002 24.459 15.5352Z" fill="white"/>
<path d="M6.0439 15.6328H13.6209C14.0319 15.6328 14.3689 15.2958 14.3689 14.8848C14.3689 14.4738 14.0319 14.1368 13.6209 14.1368H6.0439C5.6329 14.1368 5.2959 14.4738 5.2959 14.8848C5.2959 15.2958 5.6329 15.6328 6.0439 15.6328Z" fill="white"/>
<path d="M26.1864 25.4536L23.1124 28.7676V20.5996C23.1124 20.1876 22.7754 19.8516 22.3644 19.8516C21.9534 19.8516 21.6164 20.1876 21.6164 20.5996V28.7676L18.5194 25.4536C18.2354 25.1546 17.7574 25.1326 17.4574 25.4166C17.1584 25.7006 17.1364 26.1716 17.4204 26.4706L21.7964 31.1756C21.9384 31.3256 22.1324 31.4146 22.3424 31.4146C22.5514 31.4146 22.7454 31.3256 22.8884 31.1756L27.2714 26.4706C27.5554 26.1716 27.5404 25.6936 27.2414 25.4166C26.9344 25.1326 26.4714 25.1546 26.1864 25.4536Z" fill="white"/>
</svg>