<svg width="262" height="271" viewBox="0 0 262 271" fill="none" xmlns="http://www.w3.org/2000/svg">
<path d="M152.725 171.028L141.986 135.653C140.985 132.356 142.384 128.837 145.388 127.095C149.934 124.459 152.758 119.562 152.758 114.316C152.758 106.171 146.133 99.5438 137.99 99.5438C137.79 99.5438 137.588 99.5478 137.386 99.5558C129.81 99.8568 123.595 106.021 123.235 113.589C122.971 119.141 125.792 124.317 130.598 127.098C133.599 128.837 134.996 132.354 133.994 135.652L123.255 171.028H152.725ZM137.99 270.572C135.48 270.572 132.996 269.922 130.809 268.69C120.137 262.674 92.5702 244.862 67.1102 209.487C52.8932 189.734 41.3682 167.344 32.8542 142.942C22.6212 113.607 16.6422 81.0288 15.0822 46.1098C14.9022 42.0748 16.3392 38.2458 19.1292 35.3278C21.8902 32.4408 25.7532 30.7848 29.7262 30.7848C30.4222 30.7848 31.1252 30.8348 31.8182 30.9338C37.5362 31.7508 43.4602 32.1658 49.4292 32.1648C69.8742 32.1648 100.19 27.1828 128.508 3.45078C131.168 1.22476 134.534 -0.000213623 137.989 -0.000213623C141.446 -0.000213623 144.811 1.22577 147.467 3.45078C175.79 27.1838 206.105 32.1648 226.549 32.1648C232.52 32.1648 238.445 31.7508 244.16 30.9338C244.855 30.8348 245.559 30.7848 246.254 30.7848C250.227 30.7848 254.09 32.4408 256.851 35.3278C259.641 38.2468 261.078 42.0748 260.898 46.1098C259.337 81.0298 253.356 113.609 243.123 142.942C234.609 167.343 223.084 189.732 208.866 209.487C183.408 244.859 155.843 262.672 145.174 268.688C142.983 269.921 140.5 270.572 137.99 270.572Z" fill="#64141D"/>
<path d="M137.99 96.6781C137.751 96.6781 137.51 96.6831 137.269 96.6921C128.224 97.0521 120.802 104.413 120.372 113.452C120.057 120.079 123.425 126.258 129.162 129.578C131.006 130.646 131.865 132.801 131.252 134.819L119.664 172.99C119.575 173.283 119.694 173.504 119.772 173.61C119.85 173.716 120.027 173.893 120.334 173.893H155.645C155.952 173.893 156.129 173.716 156.207 173.61C156.286 173.504 156.404 173.283 156.315 172.99L144.728 134.82C144.115 132.802 144.978 130.645 146.825 129.574C152.252 126.426 155.623 120.58 155.623 114.316C155.623 104.59 147.713 96.6781 137.99 96.6781Z" fill="#64141D"/>
<mask id="mask0_2031_4" style="mask-type:luminance" maskUnits="userSpaceOnUse" x="19" y="4" width="238" height="262">
<path d="M131.574 7.07104C93.0735 39.371 50.9736 38.4709 31.1736 35.6709C24.9736 34.7709 19.5735 39.6711 19.8735 45.8711C26.5735 195.271 111.774 252.471 133.174 264.571C136.174 266.171 139.874 266.171 142.874 264.571C164.174 252.471 249.474 195.271 256.174 45.8711C256.374 39.6711 250.974 34.7709 244.874 35.6709C224.974 38.4709 182.974 39.371 144.374 7.07104C142.574 5.57104 140.274 4.771 137.974 4.771C135.674 4.771 133.474 5.57104 131.574 7.07104ZM117.874 172.471L129.374 134.271C129.774 133.071 129.274 131.871 128.174 131.271C122.074 127.671 118.074 120.971 118.474 113.371C118.974 103.271 127.174 95.171 137.174 94.771C148.374 94.371 157.574 103.271 157.574 114.271C157.574 121.571 153.574 127.871 147.774 131.271C146.674 131.871 146.174 133.071 146.574 134.271L158.174 172.471C158.674 174.071 157.374 175.771 155.674 175.771H120.374C118.574 175.771 117.374 174.071 117.874 172.471Z" fill="white"/>
</mask>
<g mask="url(#mask0_2031_4)">
<path d="M134.273 -4366.73L4069.19 -431.814L134.273 3503.1L-3800.64 -431.814L134.273 -4366.73Z" fill="url(#paint0_linear_2031_4)"/>
</g>
<g opacity="0.800003">
<g style="mix-blend-mode:screen">
<mask id="mask1_2031_4" style="mask-type:luminance" maskUnits="userSpaceOnUse" x="55" y="40" width="166" height="167">
<path d="M220.574 115.501C225.174 161.101 191.974 201.801 146.474 206.501C100.874 211.101 60.0737 177.901 55.4737 132.401C50.7737 86.8011 83.9737 46.0011 129.574 41.4011C175.174 36.7011 215.874 69.901 220.574 115.501Z" fill="white"/>
</mask>
<g mask="url(#mask1_2031_4)">
<path d="M-1428.28 -3345.07L1074.38 -3601.17L1696.82 2481.44L-805.829 2737.54L-1428.28 -3345.07Z" fill="url(#paint1_radial_2031_4)"/>
</g>
</g>
<g style="mix-blend-mode:screen">
<mask id="mask2_2031_4" style="mask-type:luminance" maskUnits="userSpaceOnUse" x="120" y="53" width="71" height="70">
<path d="M190.374 84.4016C192.374 103.602 178.374 120.702 159.274 122.602C140.074 124.602 122.974 110.701 120.974 91.5015C119.074 72.3015 132.974 55.2015 152.174 53.3015C171.274 51.3015 188.374 65.2016 190.374 84.4016Z" fill="white"/>
</mask>
<g mask="url(#mask2_2031_4)">
<path d="M-1428.28 -3345.07L1074.38 -3601.17L1696.82 2481.44L-805.829 2737.54L-1428.28 -3345.07Z" fill="url(#paint2_radial_2031_4)"/>
</g>
</g>
<g style="mix-blend-mode:screen">
<mask id="mask3_2031_4" style="mask-type:luminance" maskUnits="userSpaceOnUse" x="132" y="145" width="71" height="71">
<path d="M201.874 176.702C203.874 195.802 189.974 212.902 170.774 214.902C151.574 216.902 134.474 202.901 132.574 183.801C130.574 164.601 144.474 147.501 163.674 145.501C182.874 143.601 199.974 157.502 201.874 176.702Z" fill="white"/>
</mask>
<g mask="url(#mask3_2031_4)">
<path d="M-1428.28 -3345.07L1074.38 -3601.17L1696.82 2481.44L-805.828 2737.54L-1428.28 -3345.07Z" fill="url(#paint3_radial_2031_4)"/>
</g>
</g>
<g style="mix-blend-mode:screen">
<mask id="mask4_2031_4" style="mask-type:luminance" maskUnits="userSpaceOnUse" x="82" y="150" width="71" height="71">
<path d="M152.374 181.901C154.374 201.001 140.474 218.201 121.274 220.101C102.074 222.101 84.9737 208.101 83.0737 189.001C81.0737 169.801 94.9738 152.701 114.174 150.701C133.374 148.801 150.474 162.701 152.374 181.901Z" fill="white"/>
</mask>
<g mask="url(#mask4_2031_4)">
<path d="M-1428.28 -3345.07L1074.38 -3601.17L1696.82 2481.44L-805.829 2737.54L-1428.28 -3345.07Z" fill="url(#paint4_radial_2031_4)"/>
</g>
</g>
<g style="mix-blend-mode:screen">
<mask id="mask5_2031_4" style="mask-type:luminance" maskUnits="userSpaceOnUse" x="192" y="101" width="70" height="70">
<path d="M261.574 132.401C263.574 151.601 249.574 168.701 230.474 170.701C211.274 172.601 194.174 158.701 192.174 139.501C190.274 120.401 204.174 103.201 223.374 101.301C242.474 99.3011 259.674 113.301 261.574 132.401Z" fill="white"/>
</mask>
<g mask="url(#mask5_2031_4)">
<path d="M-1428.28 -3345.07L1074.38 -3601.17L1696.82 2481.44L-805.829 2737.54L-1428.28 -3345.07Z" fill="url(#paint5_radial_2031_4)"/>
</g>
</g>
<g style="mix-blend-mode:screen">
<mask id="mask6_2031_4" style="mask-type:luminance" maskUnits="userSpaceOnUse" x="44" y="136" width="71" height="71">
<path d="M113.874 168.001C115.874 187.101 101.974 204.201 82.7737 206.201C63.5737 208.201 46.4737 194.201 44.5737 175.101C42.5737 155.901 56.4738 138.801 75.6738 136.801C94.8738 134.901 111.974 148.801 113.874 168.001Z" fill="white"/>
</mask>
<g mask="url(#mask6_2031_4)">
<path d="M-1428.28 -3345.07L1074.38 -3601.17L1696.82 2481.44L-805.828 2737.54L-1428.28 -3345.07Z" fill="url(#paint6_radial_2031_4)"/>
</g>
</g>
<g style="mix-blend-mode:screen">
<mask id="mask7_2031_4" style="mask-type:luminance" maskUnits="userSpaceOnUse" x="160" y="166" width="70" height="70">
<path d="M229.574 197.401C231.574 216.501 217.574 233.601 198.474 235.601C179.274 237.601 162.174 223.601 160.174 204.501C158.274 185.301 172.174 168.201 191.374 166.201C210.474 164.301 227.574 178.201 229.574 197.401Z" fill="white"/>
</mask>
<g mask="url(#mask7_2031_4)">
<path d="M-1428.28 -3345.07L1074.38 -3601.17L1696.82 2481.44L-805.829 2737.54L-1428.28 -3345.07Z" fill="url(#paint7_radial_2031_4)"/>
</g>
</g>
<g style="mix-blend-mode:screen">
<mask id="mask8_2031_4" style="mask-type:luminance" maskUnits="userSpaceOnUse" x="125" y="107" width="71" height="71">
<path d="M195.074 139.201C197.074 158.401 183.074 175.501 163.974 177.501C144.774 179.401 127.674 165.501 125.674 146.301C123.774 127.201 137.674 110.101 156.874 108.101C175.974 106.101 193.074 120.101 195.074 139.201Z" fill="white"/>
</mask>
<g mask="url(#mask8_2031_4)">
<path d="M-1428.28 -3345.07L1074.38 -3601.17L1696.82 2481.44L-805.829 2737.54L-1428.28 -3345.07Z" fill="url(#paint8_radial_2031_4)"/>
</g>
</g>
<g style="mix-blend-mode:screen">
<mask id="mask9_2031_4" style="mask-type:luminance" maskUnits="userSpaceOnUse" x="92" y="4" width="70" height="71">
<path d="M161.674 35.7013C163.574 54.9013 149.674 72.0011 130.474 74.0011C111.374 75.9011 94.1737 62.0011 92.2737 42.8011C90.2737 23.7011 104.274 6.50119 123.374 4.60119C142.574 2.60119 159.674 16.6013 161.674 35.7013Z" fill="white"/>
</mask>
<g mask="url(#mask9_2031_4)">
<path d="M-1428.28 -3345.07L1074.38 -3601.17L1696.82 2481.44L-805.829 2737.54L-1428.28 -3345.07Z" fill="url(#paint9_radial_2031_4)"/>
</g>
</g>
<g style="mix-blend-mode:screen">
<mask id="mask10_2031_4" style="mask-type:luminance" maskUnits="userSpaceOnUse" x="174" y="28" width="70" height="71">
<path d="M243.674 60.001C245.674 79.201 231.674 96.3012 212.574 98.2012C193.374 100.201 176.274 86.3011 174.274 67.1011C172.374 47.9011 186.274 30.8011 205.474 28.9011C224.574 26.9011 241.674 40.801 243.674 60.001Z" fill="white"/>
</mask>
<g mask="url(#mask10_2031_4)">
<path d="M-1428.28 -3345.07L1074.38 -3601.17L1696.82 2481.44L-805.829 2737.54L-1428.28 -3345.07Z" fill="url(#paint10_radial_2031_4)"/>
</g>
</g>
<g style="mix-blend-mode:screen">
<mask id="mask11_2031_4" style="mask-type:luminance" maskUnits="userSpaceOnUse" x="60" y="66" width="71" height="71">
<path d="M130.374 97.9012C132.374 117.101 118.374 134.201 99.2738 136.201C80.0737 138.101 62.9738 124.201 60.9738 105.001C59.0738 85.9011 72.9738 68.8011 92.1738 66.8011C111.274 64.8011 128.474 78.8012 130.374 97.9012Z" fill="white"/>
</mask>
<g mask="url(#mask11_2031_4)">
<path d="M-1428.28 -3345.07L1074.38 -3601.17L1696.82 2481.44L-805.828 2737.54L-1428.28 -3345.07Z" fill="url(#paint11_radial_2031_4)"/>
</g>
</g>
<g style="mix-blend-mode:screen">
<mask id="mask12_2031_4" style="mask-type:luminance" maskUnits="userSpaceOnUse" x="0" y="46" width="70" height="71">
<path d="M69.5737 77.8016C71.5737 97.0016 57.5737 114.102 38.4737 116.102C19.2737 118.002 2.17371 104.102 0.173715 84.9017C-1.72628 65.8017 12.1737 48.6018 31.3737 46.7018C50.4737 44.7018 67.6737 58.7016 69.5737 77.8016Z" fill="white"/>
</mask>
<g mask="url(#mask12_2031_4)">
<path d="M-1428.28 -3345.07L1074.38 -3601.17L1696.82 2481.44L-805.829 2737.54L-1428.28 -3345.07Z" fill="url(#paint12_radial_2031_4)"/>
</g>
</g>
</g>
<g style="mix-blend-mode:color-dodge">
<mask id="mask13_2031_4" style="mask-type:luminance" maskUnits="userSpaceOnUse" x="19" y="4" width="238" height="262">
<path d="M155.674 175.801H120.374C118.574 175.801 117.374 174.101 117.874 172.401L129.474 134.301C129.774 133.101 129.274 131.801 128.174 131.201C122.074 127.701 118.074 121.001 118.474 113.401C118.974 103.301 127.174 95.2009 137.174 94.8009C148.374 94.3009 157.574 103.301 157.574 114.301C157.574 121.501 153.574 127.801 147.774 131.201C146.674 131.801 146.174 133.101 146.574 134.301L158.174 172.401C158.674 174.101 157.374 175.801 155.674 175.801ZM244.874 35.7011C224.974 38.5011 182.974 39.401 144.374 7.10098C140.674 4.00098 135.274 4.00098 131.574 7.10098C93.0735 39.401 50.9736 38.5011 31.1736 35.7011C24.9736 34.8011 19.5735 39.701 19.8735 45.901C26.5735 195.201 111.774 252.501 133.174 264.501C136.174 266.201 139.774 266.201 142.874 264.501C164.174 252.501 249.474 195.201 256.174 45.901C256.374 39.701 250.974 34.8011 244.874 35.7011Z" fill="white"/>
</mask>
<g mask="url(#mask13_2031_4)">
<path d="M183.56 82.6982L161.38 60.5182V5.75524H165.576V58.7802L186.527 79.7312L183.56 82.6982Z" fill="#333333"/>
<path d="M157.168 6.07037C157.168 2.58637 159.994 -0.239629 163.478 -0.239629C166.962 -0.239629 169.788 2.58637 169.788 6.07037C169.788 9.55437 166.962 12.3804 163.478 12.3804C159.994 12.3804 157.168 9.55437 157.168 6.07037Z" fill="#333333"/>
<path d="M184.848 88.853L192.682 81.019L184.848 73.185L177.014 81.019L184.848 88.853Z" fill="#333333"/>
<path d="M118.056 85.7446L115.09 82.7776L135.139 62.7286V17.5746L116.033 -1.53137L119 -4.49737L139.335 15.8366V64.4666L118.056 85.7446Z" fill="#333333"/>
<path d="M108.935 84.0659L116.769 91.8999L124.603 84.0659L116.769 76.2319L108.935 84.0659Z" fill="#333333"/>
<path d="M155.328 89.1987L145.447 79.3177V-38.2323H149.643V77.5797L158.295 86.2317L155.328 89.1987Z" fill="#333333"/>
<path d="M152.127 91.9542C154.591 94.4182 158.587 94.4182 161.05 91.9542C163.514 89.4902 163.514 85.4942 161.05 83.0302C158.587 80.5672 154.591 80.5672 152.127 83.0302C149.663 85.4942 149.663 89.4902 152.127 91.9542Z" fill="#333333"/>
<path d="M68.8868 82.6172L65.9198 79.6502L81.6708 63.9002V10.7702H85.8658V65.6382L68.8868 82.6172Z" fill="#333333"/>
<path d="M77.4581 11.0855C77.4581 7.60151 80.2841 4.77551 83.7681 4.77551C87.2521 4.77551 90.0781 7.60151 90.0781 11.0855C90.0781 14.5695 87.2521 17.3955 83.7681 17.3955C80.2841 17.3955 77.4581 14.5695 77.4581 11.0855Z" fill="#333333"/>
<path d="M59.7646 80.938L67.5986 88.772L75.4326 80.938L67.5986 73.104L59.7646 80.938Z" fill="#333333"/>
<path d="M97.802 101.03H93.606V70.6433L124.859 39.3903L127.826 42.3573L97.802 72.3813V101.03Z" fill="#333333"/>
<path d="M102.014 100.715C102.014 104.199 99.1878 107.025 95.7038 107.025C92.2198 107.025 89.3938 104.199 89.3938 100.715C89.3938 97.2314 92.2198 94.4054 95.7038 94.4054C99.1878 94.4054 102.014 97.2314 102.014 100.715Z" fill="#333333"/>
<path d="M133.981 41.0698L126.147 33.2358L118.312 41.0698L126.147 48.9038L133.981 41.0698Z" fill="#333333"/>
<path d="M106.211 128.672H89.5462L68.1302 107.256H37.6022V103.061H69.8682L91.2842 124.476H106.211V128.672Z" fill="#333333"/>
<path d="M37.9172 111.468C34.4332 111.468 31.6072 108.643 31.6072 105.158C31.6072 101.674 34.4332 98.8478 37.9172 98.8478C41.4012 98.8478 44.2272 101.674 44.2272 105.158C44.2272 108.643 41.4012 111.468 37.9172 111.468Z" fill="#333333"/>
<path d="M111.474 121.034H100.395V132.113H111.474V121.034Z" fill="#333333"/>
<path d="M106.889 154.9H76.7043L60.1553 138.352H6.52026V134.156H61.8933L78.4413 150.704H106.889V154.9Z" fill="#333333"/>
<path d="M106.574 159.112C110.058 159.112 112.884 156.287 112.884 152.802C112.884 149.318 110.058 146.492 106.574 146.492C103.09 146.492 100.264 149.318 100.264 152.802C100.264 156.287 103.09 159.112 106.574 159.112Z" fill="#333333"/>
<path d="M34.1564 82.1855L-0.0895996 47.9405L2.8784 44.9735L37.1234 79.2185L34.1564 82.1855Z" fill="#333333"/>
<path d="M35.4444 88.3408L43.2784 80.5068L35.4444 72.6728L27.6104 80.5068L35.4444 88.3408Z" fill="#333333"/>
<path d="M47.3633 67.5234L32.8243 52.9844V9.08344H37.0203V51.2464L50.3303 64.5564L47.3633 67.5234Z" fill="#333333"/>
<path d="M29.3835 3.82031H40.4626V14.8994H29.3835V3.82031Z" fill="#333333"/>
<path d="M44.1622 70.279C46.6262 72.743 50.6222 72.743 53.0852 70.279C55.5492 67.815 55.5492 63.819 53.0852 61.355C50.6222 58.892 46.6262 58.892 44.1622 61.355C41.6982 63.819 41.6982 67.815 44.1622 70.279Z" fill="#333333"/>
<path d="M133.252 288.984H129.056V211.634L114.264 196.842V183.879H118.46V195.104L133.252 209.896V288.984Z" fill="#333333"/>
<path d="M122.672 184.194C122.672 180.71 119.846 177.884 116.362 177.884C112.878 177.884 110.052 180.71 110.052 184.194C110.052 187.678 112.878 190.504 116.362 190.504C119.846 190.504 122.672 187.678 122.672 184.194Z" fill="#333333"/>
<path d="M101.386 258.316H97.1897V210.604L78.7817 192.194V171.581H82.9767V190.457L101.386 208.866V258.316Z" fill="#333333"/>
<path d="M105.598 258.001C105.598 261.485 102.772 264.311 99.2878 264.311C95.8038 264.311 92.9778 261.485 92.9778 258.001C92.9778 254.517 95.8038 251.691 99.2878 251.691C102.772 251.691 105.598 254.517 105.598 258.001Z" fill="#333333"/>
<path d="M86.4186 166.318H75.3396V177.397H86.4186V166.318Z" fill="#333333"/>
<path d="M184.008 264.824L149.581 230.397V195.272L166.75 178.103L169.716 181.07L153.777 197.009V228.66L186.974 261.857L184.008 264.824Z" fill="#333333"/>
<path d="M189.73 258.656C192.194 261.12 192.194 265.116 189.73 267.58C187.266 270.043 183.27 270.043 180.806 267.58C178.343 265.116 178.343 261.12 180.806 258.656C183.27 256.192 187.266 256.192 189.73 258.656Z" fill="#333333"/>
<path d="M175.871 179.783L168.037 171.949L160.203 179.783L168.037 187.617L175.871 179.783Z" fill="#333333"/>
<path d="M196.985 202.574H192.789V177.538L176.241 160.989V148.782H180.437V159.251L196.985 175.8V202.574Z" fill="#333333"/>
<path d="M200.427 207.837H189.348V196.758H200.427V207.837Z" fill="#333333"/>
<path d="M184.649 149.098C184.649 145.614 181.823 142.788 178.339 142.788C174.855 142.788 172.029 145.614 172.029 149.098C172.029 152.582 174.855 155.408 178.339 155.408C181.823 155.408 184.649 152.582 184.649 149.098Z" fill="#333333"/>
<path d="M253.82 155.056H197.188V150.86H253.82V155.056Z" fill="#333333"/>
<path d="M253.504 146.648C256.988 146.648 259.814 149.473 259.814 152.958C259.814 156.442 256.988 159.268 253.504 159.268C250.02 159.268 247.194 156.442 247.194 152.958C247.194 149.473 250.02 146.648 253.504 146.648Z" fill="#333333"/>
<path d="M191.925 158.497H203.004V147.418H191.925V158.497Z" fill="#333333"/>
<path d="M260.597 124.503H196.188L174.988 103.303L177.955 100.336L197.926 120.307H260.597V124.503Z" fill="#333333"/>
<path d="M260.281 116.095C263.765 116.095 266.591 118.921 266.591 122.405C266.591 125.889 263.765 128.715 260.281 128.715C256.797 128.715 253.971 125.889 253.971 122.405C253.971 118.921 256.797 116.095 260.281 116.095Z" fill="#333333"/>
<path d="M176.667 94.1816L168.833 102.016L176.667 109.85L184.501 102.016L176.667 94.1816Z" fill="#333333"/>
<path d="M231.374 87.3276H212.095V83.1316H229.636L268.913 43.8546L271.88 46.8216L231.374 87.3276Z" fill="#333333"/>
<path d="M212.41 78.92C208.926 78.92 206.1 81.746 206.1 85.23C206.1 88.714 208.926 91.54 212.41 91.54C215.894 91.54 218.72 88.714 218.72 85.23C218.72 81.746 215.894 78.92 212.41 78.92Z" fill="#333333"/>
<path d="M205.872 65.9546L193.005 53.0876V9.77059H197.2V51.3496L208.838 62.9876L205.872 65.9546Z" fill="#333333"/>
<path d="M188.793 10.0865C188.793 6.60248 191.619 3.77648 195.103 3.77648C198.587 3.77648 201.413 6.60248 201.413 10.0865C201.413 13.5705 198.587 16.3965 195.103 16.3965C191.619 16.3965 188.793 13.5705 188.793 10.0865Z" fill="#333333"/>
<path d="M207.159 72.1094L214.993 64.2754L207.159 56.4414L199.325 64.2754L207.159 72.1094Z" fill="#333333"/>
<path d="M161.965 146.05L158.998 143.083L168.893 133.188H225.959V137.383H170.631L161.965 146.05Z" fill="#333333"/>
<path d="M160.677 152.205L152.843 144.371L160.677 136.537L168.511 144.371L160.677 152.205Z" fill="#333333"/>
<path d="M225.643 141.596C229.127 141.596 231.953 138.771 231.953 135.286C231.953 131.802 229.127 128.976 225.643 128.976C222.159 128.976 219.333 131.802 219.333 135.286C219.333 138.771 222.159 141.596 225.643 141.596Z" fill="#333333"/>
<path d="M79.4976 135.694L68.3076 124.503H50.7856V120.308H70.0456L82.4646 132.727L79.4976 135.694Z" fill="#333333"/>
<path d="M51.1014 128.715C47.6174 128.715 44.7914 125.889 44.7914 122.405C44.7914 118.921 47.6174 116.095 51.1014 116.095C54.5854 116.095 57.4114 118.921 57.4114 122.405C57.4114 125.889 54.5854 128.715 51.1014 128.715Z" fill="#333333"/>
<path d="M80.7853 141.849L88.6193 134.015L80.7853 126.181L72.9513 134.015L80.7853 141.849Z" fill="#333333"/>
</g>
</g>
<defs>
<linearGradient id="paint0_linear_2031_4" x1="28.8359" y1="-8.58717" x2="238.52" y2="201.097" gradientUnits="userSpaceOnUse">
<stop stop-color="#9B00FF"/>
<stop offset="0.238095" stop-color="#A800DB"/>
<stop offset="0.440476" stop-color="#B100C2"/>
<stop offset="0.604762" stop-color="#B700B2"/>
<stop offset="0.764286" stop-color="#BB00A7"/>
<stop offset="0.897619" stop-color="#BC00A3"/>
<stop offset="1" stop-color="#BC00A3"/>
</linearGradient>
<radialGradient id="paint1_radial_2031_4" cx="0" cy="0" r="1" gradientUnits="userSpaceOnUse" gradientTransform="translate(137.99 123.917) rotate(-5.84286) scale(82.9733 82.9733)">
<stop stop-color="#FF00D7"/>
<stop offset="0.0785714" stop-color="#FD00D5"/>
<stop offset="0.160714" stop-color="#C700A8"/>
<stop offset="0.25" stop-color="#96007E"/>
<stop offset="0.317857" stop-color="#750063"/>
<stop offset="0.40119" stop-color="#540047"/>
<stop offset="0.489286" stop-color="#38002F"/>
<stop offset="0.579762" stop-color="#22001D"/>
<stop offset="0.666667" stop-color="#130010"/>
<stop offset="0.763095" stop-color="#080007"/>
<stop offset="0.863095" stop-color="#020002"/>
<stop offset="1"/>
</radialGradient>
<radialGradient id="paint2_radial_2031_4" cx="0" cy="0" r="1" gradientUnits="userSpaceOnUse" gradientTransform="translate(155.683 87.9471) rotate(-5.84286) scale(34.8733)">
<stop stop-color="#FF00D7"/>
<stop offset="0.0785714" stop-color="#FD00D5"/>
<stop offset="0.160714" stop-color="#C700A8"/>
<stop offset="0.25" stop-color="#96007E"/>
<stop offset="0.317857" stop-color="#750063"/>
<stop offset="0.40119" stop-color="#540047"/>
<stop offset="0.489286" stop-color="#38002F"/>
<stop offset="0.579762" stop-color="#22001D"/>
<stop offset="0.666667" stop-color="#130010"/>
<stop offset="0.763095" stop-color="#080007"/>
<stop offset="0.863095" stop-color="#020002"/>
<stop offset="1"/>
</radialGradient>
<radialGradient id="paint3_radial_2031_4" cx="0" cy="0" r="1" gradientUnits="userSpaceOnUse" gradientTransform="translate(167.226 180.211) rotate(-5.84286) scale(34.8733)">
<stop stop-color="#FF00D7"/>
<stop offset="0.0785714" stop-color="#FD00D5"/>
<stop offset="0.160714" stop-color="#C700A8"/>
<stop offset="0.25" stop-color="#96007E"/>
<stop offset="0.317857" stop-color="#750063"/>
<stop offset="0.40119" stop-color="#540047"/>
<stop offset="0.489286" stop-color="#38002F"/>
<stop offset="0.579762" stop-color="#22001D"/>
<stop offset="0.666667" stop-color="#130010"/>
<stop offset="0.763095" stop-color="#080007"/>
<stop offset="0.863095" stop-color="#020002"/>
<stop offset="1"/>
</radialGradient>
<radialGradient id="paint4_radial_2031_4" cx="0" cy="0" r="1" gradientUnits="userSpaceOnUse" gradientTransform="translate(117.722 185.441) rotate(-5.84286) scale(34.8733)">
<stop stop-color="#FF00D7"/>
<stop offset="0.0785714" stop-color="#FD00D5"/>
<stop offset="0.160714" stop-color="#C700A8"/>
<stop offset="0.25" stop-color="#96007E"/>
<stop offset="0.317857" stop-color="#750063"/>
<stop offset="0.40119" stop-color="#540047"/>
<stop offset="0.489286" stop-color="#38002F"/>
<stop offset="0.579762" stop-color="#22001D"/>
<stop offset="0.666667" stop-color="#130010"/>
<stop offset="0.763095" stop-color="#080007"/>
<stop offset="0.863095" stop-color="#020002"/>
<stop offset="1"/>
</radialGradient>
<radialGradient id="paint5_radial_2031_4" cx="0" cy="0" r="1" gradientUnits="userSpaceOnUse" gradientTransform="translate(226.906 135.981) rotate(-5.84286) scale(34.8733 34.8733)">
<stop stop-color="#FF00D7"/>
<stop offset="0.0785714" stop-color="#FD00D5"/>
<stop offset="0.160714" stop-color="#C700A8"/>
<stop offset="0.25" stop-color="#96007E"/>
<stop offset="0.317857" stop-color="#750063"/>
<stop offset="0.40119" stop-color="#540047"/>
<stop offset="0.489286" stop-color="#38002F"/>
<stop offset="0.579762" stop-color="#22001D"/>
<stop offset="0.666667" stop-color="#130010"/>
<stop offset="0.763095" stop-color="#080007"/>
<stop offset="0.863095" stop-color="#020002"/>
<stop offset="1"/>
</radialGradient>
<radialGradient id="paint6_radial_2031_4" cx="0" cy="0" r="1" gradientUnits="userSpaceOnUse" gradientTransform="translate(79.2241 171.51) rotate(-5.84286) scale(34.8733)">
<stop stop-color="#FF00D7"/>
<stop offset="0.0785714" stop-color="#FD00D5"/>
<stop offset="0.160714" stop-color="#C700A8"/>
<stop offset="0.25" stop-color="#96007E"/>
<stop offset="0.317857" stop-color="#750063"/>
<stop offset="0.40119" stop-color="#540047"/>
<stop offset="0.489286" stop-color="#38002F"/>
<stop offset="0.579762" stop-color="#22001D"/>
<stop offset="0.666667" stop-color="#130010"/>
<stop offset="0.763095" stop-color="#080007"/>
<stop offset="0.863095" stop-color="#020002"/>
<stop offset="1"/>
</radialGradient>
<radialGradient id="paint7_radial_2031_4" cx="0" cy="0" r="1" gradientUnits="userSpaceOnUse" gradientTransform="translate(194.887 200.904) rotate(-5.84286) scale(34.8733)">
<stop stop-color="#FF00D7"/>
<stop offset="0.0785714" stop-color="#FD00D5"/>
<stop offset="0.160714" stop-color="#C700A8"/>
<stop offset="0.25" stop-color="#96007E"/>
<stop offset="0.317857" stop-color="#750063"/>
<stop offset="0.40119" stop-color="#540047"/>
<stop offset="0.489286" stop-color="#38002F"/>
<stop offset="0.579762" stop-color="#22001D"/>
<stop offset="0.666667" stop-color="#130010"/>
<stop offset="0.763095" stop-color="#080007"/>
<stop offset="0.863095" stop-color="#020002"/>
<stop offset="1"/>
</radialGradient>
<radialGradient id="paint8_radial_2031_4" cx="0" cy="0" r="1" gradientUnits="userSpaceOnUse" gradientTransform="translate(160.379 142.788) rotate(-5.84286) scale(34.8733)">
<stop stop-color="#FF00D7"/>
<stop offset="0.0785714" stop-color="#FD00D5"/>
<stop offset="0.160714" stop-color="#C700A8"/>
<stop offset="0.25" stop-color="#96007E"/>
<stop offset="0.317857" stop-color="#750063"/>
<stop offset="0.40119" stop-color="#540047"/>
<stop offset="0.489286" stop-color="#38002F"/>
<stop offset="0.579762" stop-color="#22001D"/>
<stop offset="0.666667" stop-color="#130010"/>
<stop offset="0.763095" stop-color="#080007"/>
<stop offset="0.863095" stop-color="#020002"/>
<stop offset="1"/>
</radialGradient>
<radialGradient id="paint9_radial_2031_4" cx="0" cy="0" r="1" gradientUnits="userSpaceOnUse" gradientTransform="translate(126.939 39.2734) rotate(-5.84286) scale(34.8733)">
<stop stop-color="#FF00D7"/>
<stop offset="0.0785714" stop-color="#FD00D5"/>
<stop offset="0.160714" stop-color="#C700A8"/>
<stop offset="0.25" stop-color="#96007E"/>
<stop offset="0.317857" stop-color="#750063"/>
<stop offset="0.40119" stop-color="#540047"/>
<stop offset="0.489286" stop-color="#38002F"/>
<stop offset="0.579762" stop-color="#22001D"/>
<stop offset="0.666667" stop-color="#130010"/>
<stop offset="0.763095" stop-color="#080007"/>
<stop offset="0.863095" stop-color="#020002"/>
<stop offset="1"/>
</radialGradient>
<radialGradient id="paint10_radial_2031_4" cx="0" cy="0" r="1" gradientUnits="userSpaceOnUse" gradientTransform="translate(208.987 63.5478) rotate(-5.84286) scale(34.8733)">
<stop stop-color="#FF00D7"/>
<stop offset="0.0785714" stop-color="#FD00D5"/>
<stop offset="0.160714" stop-color="#C700A8"/>
<stop offset="0.25" stop-color="#96007E"/>
<stop offset="0.317857" stop-color="#750063"/>
<stop offset="0.40119" stop-color="#540047"/>
<stop offset="0.489286" stop-color="#38002F"/>
<stop offset="0.579762" stop-color="#22001D"/>
<stop offset="0.666667" stop-color="#130010"/>
<stop offset="0.763095" stop-color="#080007"/>
<stop offset="0.863095" stop-color="#020002"/>
<stop offset="1"/>
</radialGradient>
<radialGradient id="paint11_radial_2031_4" cx="0" cy="0" r="1" gradientUnits="userSpaceOnUse" gradientTransform="translate(95.7043 101.497) rotate(-5.84286) scale(34.8733)">
<stop stop-color="#FF00D7"/>
<stop offset="0.0785714" stop-color="#FD00D5"/>
<stop offset="0.160714" stop-color="#C700A8"/>
<stop offset="0.25" stop-color="#96007E"/>
<stop offset="0.317857" stop-color="#750063"/>
<stop offset="0.40119" stop-color="#540047"/>
<stop offset="0.489286" stop-color="#38002F"/>
<stop offset="0.579762" stop-color="#22001D"/>
<stop offset="0.666667" stop-color="#130010"/>
<stop offset="0.763095" stop-color="#080007"/>
<stop offset="0.863095" stop-color="#020002"/>
<stop offset="1"/>
</radialGradient>
<radialGradient id="paint12_radial_2031_4" cx="0" cy="0" r="1" gradientUnits="userSpaceOnUse" gradientTransform="translate(34.9001 81.3614) rotate(-5.84286) scale(34.8733)">
<stop stop-color="#FF00D7"/>
<stop offset="0.0785714" stop-color="#FD00D5"/>
<stop offset="0.160714" stop-color="#C700A8"/>
<stop offset="0.25" stop-color="#96007E"/>
<stop offset="0.317857" stop-color="#750063"/>
<stop offset="0.40119" stop-color="#540047"/>
<stop offset="0.489286" stop-color="#38002F"/>
<stop offset="0.579762" stop-color="#22001D"/>
<stop offset="0.666667" stop-color="#130010"/>
<stop offset="0.763095" stop-color="#080007"/>
<stop offset="0.863095" stop-color="#020002"/>
<stop offset="1"/>
</radialGradient>
</defs>
</svg>