<?xml version="1.0" encoding="UTF-8"?>
<svg id="Layer_1" xmlns="http://www.w3.org/2000/svg" version="1.1" viewBox="0 0 247.1 109.9">
  <!-- Generator: Adobe Illustrator 30.0.0, SVG Export Plug-In . SVG Version: 2.1.1 Build 123)  -->
  <defs>
    <style>
      .st0 {
        fill: #f4bd2b;
      }

      .st1 {
        fill: #fff;
      }
    </style>
  </defs>
  <g>
    <path class="st0" d="M19.1,85.8h.2v2.9H4.4c-2.6,0-4.4-1.8-4.4-4.5v-5.2h2.9v5.3c0,1.1.6,1.6,1.8,1.6h11.6v-8h2.9v8ZM8.1,90.5h2.9v2.9h-2.9v-2.9Z"/>
    <path class="st0" d="M19.1,85.8h6v-8h2.9v10.9h-8.9v-2.9ZM21.1,90.5h2.9v2.9h-2.9v-2.9ZM25.2,90.5h2.9v2.9h-2.9v-2.9Z"/>
    <path class="st0" d="M31.3,90.6h.4c1.4,0,2.1-.7,2.1-2v-10.8h2.9v10.3c0,.4,0,.7,0,1,0,1.1-.4,2-.8,2.6-.7.9-1.6,1.5-2.7,1.6-.3,0-.8,0-1.3,0h-.4v-2.8Z"/>
    <path class="st0" d="M45.1,85.8v-1.7c0-1.2-.3-2-.9-2.5-.4-.3-.8-.6-1.3-.7-.4-.1-1.2-.2-2.2-.2v-2.9h.9c1.5,0,2.8.4,3.9,1.2,1.6,1.1,2.4,2.8,2.4,5.1v1.8h.1v2.9h-9.4v-2.9h6.3Z"/>
    <path class="st0" d="M48,85.8h6v-8h2.9v8h.1v2.9h-9v-2.9ZM50,73.2h2.9v2.9h-2.9v-2.9ZM54,73.2h2.9v2.9h-2.9v-2.9Z"/>
    <path class="st0" d="M56.9,85.8h3.5v-12.7h2.9v12.7h.1v2.9h-6.5v-2.9Z"/>
    <path class="st0" d="M63.3,85.8h3.5v-12.7h2.9v15.5h-6.4v-2.9Z"/>
    <path class="st0" d="M82.6,85.8v-1.7c0-1.2-.3-2-.9-2.5-.4-.3-.8-.6-1.3-.7-.4-.1-1.2-.2-2.2-.2v-2.9h.9c1.5,0,2.8.4,3.9,1.2,1.6,1.1,2.4,2.8,2.4,5.1v4.6h-9.2v-2.9h6.3Z"/>
    <path class="st0" d="M87.7,88.7v-15.5h2.9v12.7h.2v2.9h-3.1Z"/>
    <path class="st0" d="M90.3,85.8h10.1v2.9h-10.1v-2.9Z"/>
    <path class="st0" d="M100,85.8h3.5v-8h2.9v10.9h-6.4v-2.9ZM103.5,90.5h2.9v2.9h-2.9v-2.9Z"/>
    <path class="st0" d="M108,71l.5-.5c.2-.3.5-.4.8-.4s.5.1,1,.4c.1,0,.2,0,.3,0s.2,0,.3-.1l.4-.4.7.7-.5.5c-.3.3-.6.4-.8.4s-.5-.1-1-.4c-.1,0-.2,0-.3,0s-.3,0-.5.3l-.2.2-.7-.7ZM111.4,88.7h-2.9v-15.5h2.9v15.5Z"/>
    <path class="st0" d="M127.7,77.8v8h.2v2.9h-3v-7.4c-2.1.7-3.6,3.4-4.4,7.4h-2.9c.6-6.7,4.5-10.5,10.2-10.9ZM120.8,73.2h2.9v2.9h-2.9v-2.9ZM124.9,73.2h2.9v2.9h-2.9v-2.9Z"/>
    <path class="st0" d="M127.5,85.8h10.1v2.9h-10.1v-2.9Z"/>
    <path class="st0" d="M140.7,82.9v-5l6.2-4.7h4.7l-8.1,6.1v.7h4.5c2.6,0,4.5,1.8,4.5,4.3v1.5h.1v2.9h-15.6v-2.9h12.5v-1.2c0-1.2-.5-1.8-1.6-1.8h-7.5Z"/>
    <path class="st0" d="M152.7,85.8h3.5v-8h2.9v8h.1v2.9h-6.5v-2.9ZM156.2,90.5h2.9v2.9h-2.9v-2.9Z"/>
    <path class="st0" d="M166.5,85.8v-4.2h2.9v4.2h3.3v-6.1h2.9v6.1h3.2v-8h2.9v10.9h-22.5v-2.9h7.5ZM170.6,73.3h2.9v2.9h-2.9v-2.9ZM172.6,69.3h2.9v2.9h-2.9v-2.9ZM174.7,73.3h2.9v2.9h-2.9v-2.9Z"/>
    <path class="st0" d="M194,85.8v-1.7c0-1.2-.3-2-.9-2.5-.4-.3-.8-.6-1.2-.7-.4-.1-1.2-.2-2.2-.2v-2.9h.9c1.5,0,2.8.4,3.9,1.2,1.6,1.1,2.4,2.8,2.4,5.1v1.8h.1v2.9h-9.4v-2.9h6.3Z"/>
    <path class="st0" d="M196.6,85.8h10.1v2.9h-10.1v-2.9Z"/>
    <path class="st0" d="M209.9,85.8v-.5c0-.7.1-1.4.4-1.9.4-.9,1.1-1.4,1.9-1.8v-3.9h5.4c2.7,0,4.5,1.8,4.5,4.4v3.7h.1v2.9h-15.9v-2.9h3.5ZM212.7,85.8h1.8v-.9c0-.6-.3-.9-.9-.9s-.9.3-.9,1v.8ZM219.2,85.8v-3.4c0-1.2-.5-1.8-1.6-1.8h-2.6v1c1.1.5,1.6,1,1.9,1.8.3.6.4,1.2.4,1.9v.5h1.8Z"/>
    <path class="st0" d="M222.1,85.8h5c.6,0,.6,0,.9-.1-.5-1.6-1.3-3.1-2.7-4.2l1.4-3.4c1.1-.1,2.1-.2,3-.2,3,0,4.4,1.1,4.4,3.4s-.7,3-2.1,4.6h2.2v2.9h-2.1c-1.5,0-1.7,0-2.4-.3-.5.3-.8.3-2.5.3h-5.1v-2.9ZM230.1,83.8c.8-.9,1.2-1.6,1.2-2.2s-.6-1.1-1.9-1.1h-1c1.2,1.3,1.5,2.1,1.7,3.2Z"/>
    <path class="st0" d="M237.7,88.7h-3.6v-2.9h3.6v-3.7c0-2.6,1.8-4.4,4.5-4.4h3.5v8.6c0,2.7-1.8,4.5-4.5,4.5h-3.5v-2.3ZM240.5,88.1h.7c1.1,0,1.6-.6,1.6-1.8v-5.6h-.7c-1.1,0-1.6.6-1.6,1.8v5.6Z"/>
  </g>
  <g>
    <path class="st1" d="M3.6,106.6l-.8,3H0l3.6-11.8h3.5l3.7,11.8h-2.9l-.9-3h-3.4ZM6.6,104.6l-.7-2.5c-.2-.7-.4-1.6-.6-2.3h0c-.2.7-.4,1.6-.5,2.3l-.7,2.5h2.6Z"/>
    <path class="st1" d="M12.3,98c.7-.1,2.1-.2,3.5-.2s2.6.2,3.5.7c.8.4,1.4,1.2,1.4,2.3s-.6,2-1.9,2.5h0c1.4.4,2.4,1.4,2.4,2.9s-.5,1.9-1.2,2.5c-.9.7-2.3,1.1-4.6,1.1s-2.3,0-2.9-.2v-11.6ZM15,102.5h.9c1.4,0,2.2-.6,2.2-1.5s-.7-1.4-1.9-1.4-.9,0-1.1,0v2.8ZM15,107.8c.3,0,.6,0,1,0,1.2,0,2.3-.5,2.3-1.7s-1.1-1.7-2.4-1.7h-.9v3.3Z"/>
    <path class="st1" d="M25.5,106.6l-.8,3h-2.8l3.6-11.8h3.5l3.7,11.8h-2.9l-.9-3h-3.4ZM28.5,104.6l-.7-2.5c-.2-.7-.4-1.6-.6-2.3h0c-.2.7-.4,1.6-.5,2.3l-.7,2.5h2.6Z"/>
    <path class="st1" d="M34.2,98c1-.2,2.3-.2,3.6-.2,2.2,0,3.7.4,4.8,1.3,1.2.9,2,2.4,2,4.5s-.8,3.8-2,4.8c-1.2,1-3.1,1.5-5.5,1.5s-2.4,0-3-.2v-11.6ZM36.8,107.7c.2,0,.6,0,.9,0,2.4,0,4-1.3,4-4.1,0-2.5-1.4-3.8-3.7-3.8s-1,0-1.2.1v7.7Z"/>
    <path class="st1" d="M49.7,109.7v-11.8h3.1l2.5,4.3c.7,1.2,1.4,2.7,1.9,4.1h0c-.2-1.6-.2-3.2-.2-4.9v-3.4h2.5v11.8h-2.8l-2.5-4.6c-.7-1.3-1.5-2.8-2.1-4.2h0c0,1.6.1,3.2.1,5.2v3.6h-2.5Z"/>
    <path class="st1" d="M68.8,104.7h-4.4v2.8h4.9v2.2h-7.5v-11.8h7.3v2.2h-4.6v2.5h4.4v2.2Z"/>
    <path class="st1" d="M73.4,100.1h-3.2v-2.2h9.1v2.2h-3.2v9.6h-2.7v-9.6Z"/>
    <path class="st1" d="M82.5,109.7l-2.8-11.8h2.9l.9,4.9c.3,1.4.5,2.9.7,4.1h0c.2-1.3.5-2.7.8-4.2l1-4.8h2.8l.9,5c.3,1.4.5,2.6.6,4h0c.2-1.3.4-2.7.7-4.1l1-4.8h2.7l-3.1,11.8h-2.9l-1-5.1c-.2-1.2-.4-2.3-.6-3.6h0c-.2,1.3-.4,2.5-.7,3.6l-1.1,5.1h-2.9Z"/>
    <path class="st1" d="M106.8,103.6c0,3.9-2.4,6.2-5.8,6.2s-5.6-2.6-5.6-6,2.3-6.2,5.8-6.2,5.6,2.7,5.6,6ZM98.3,103.8c0,2.3,1.1,3.9,2.9,3.9s2.8-1.7,2.8-4-1-3.9-2.9-3.9-2.9,1.7-2.9,4Z"/>
    <path class="st1" d="M108.5,98c.9-.1,2.1-.2,3.6-.2s3,.3,3.8.9c.7.6,1.1,1.4,1.1,2.5s-1.1,2.5-2.1,2.9h0c.8.4,1.3,1.2,1.6,2.3.4,1.3.7,2.9,1,3.3h-2.7c-.2-.4-.5-1.3-.8-2.8-.3-1.5-.8-1.9-1.9-1.9h-.8v4.6h-2.6v-11.7ZM111.1,103.1h1.1c1.3,0,2.1-.7,2.1-1.7s-.7-1.6-2-1.6c-.6,0-1,0-1.2,0v3.3Z"/>
    <path class="st1" d="M118.8,97.8h2.6v5.2h0c.3-.5.5-.9.8-1.3l2.7-3.9h3.3l-3.9,5,4.1,6.8h-3.1l-2.9-5.1-1,1.2v3.9h-2.6v-11.8Z"/>
    <path class="st1" d="M132.2,97.8h7.2v2.2h-4.5v2.7h4.2v2.2h-4.2v4.8h-2.7v-11.8Z"/>
    <path class="st1" d="M152.2,103.6c0,3.9-2.4,6.2-5.8,6.2s-5.6-2.6-5.6-6,2.3-6.2,5.8-6.2,5.6,2.7,5.6,6ZM143.7,103.8c0,2.3,1.1,3.9,2.9,3.9s2.8-1.7,2.8-4-1-3.9-2.9-3.9-2.9,1.7-2.9,4Z"/>
    <path class="st1" d="M153.9,98c.9-.1,2.1-.2,3.6-.2s3,.3,3.8.9c.7.6,1.1,1.4,1.1,2.5s-1.1,2.5-2.1,2.9h0c.8.4,1.3,1.2,1.6,2.3.4,1.3.7,2.9,1,3.3h-2.7c-.2-.4-.5-1.3-.8-2.8-.3-1.5-.8-1.9-1.9-1.9h-.8v4.6h-2.6v-11.7ZM156.5,103.1h1.1c1.3,0,2.1-.7,2.1-1.7s-.7-1.6-2-1.6c-.6,0-1,0-1.2,0v3.3Z"/>
    <path class="st1" d="M173,100.1h-3.2v-2.2h9.1v2.2h-3.2v9.6h-2.7v-9.6Z"/>
    <path class="st1" d="M180.3,98c.9-.1,2.1-.2,3.6-.2s3,.3,3.8.9c.7.6,1.1,1.4,1.1,2.5s-1.1,2.5-2.1,2.9h0c.8.4,1.3,1.2,1.6,2.3.4,1.3.7,2.9,1,3.3h-2.7c-.2-.4-.5-1.3-.8-2.8-.3-1.5-.8-1.9-1.9-1.9h-.8v4.6h-2.6v-11.7ZM182.9,103.1h1.1c1.3,0,2.1-.7,2.1-1.7s-.7-1.6-2-1.6c-.6,0-1,0-1.2,0v3.3Z"/>
    <path class="st1" d="M193.5,106.6l-.8,3h-2.8l3.6-11.8h3.5l3.7,11.8h-2.9l-.9-3h-3.4ZM196.5,104.6l-.7-2.5c-.2-.7-.4-1.6-.6-2.3h0c-.2.7-.4,1.6-.5,2.3l-.7,2.5h2.6Z"/>
    <path class="st1" d="M204.8,97.8v11.8h-2.7v-11.8h2.7Z"/>
    <path class="st1" d="M207.1,109.7v-11.8h3.1l2.5,4.3c.7,1.2,1.4,2.7,1.9,4.1h0c-.2-1.6-.2-3.2-.2-4.9v-3.4h2.5v11.8h-2.8l-2.5-4.6c-.7-1.3-1.5-2.8-2.1-4.2h0c0,1.6.1,3.2.1,5.2v3.6h-2.5Z"/>
    <path class="st1" d="M221.8,97.8v11.8h-2.7v-11.8h2.7Z"/>
    <path class="st1" d="M224,109.7v-11.8h3.1l2.5,4.3c.7,1.2,1.4,2.7,1.9,4.1h0c-.2-1.6-.2-3.2-.2-4.9v-3.4h2.5v11.8h-2.8l-2.5-4.6c-.7-1.3-1.5-2.8-2.1-4.2h0c0,1.6.1,3.2.1,5.2v3.6h-2.5Z"/>
    <path class="st1" d="M245.9,109.1c-.8.3-2.4.7-3.9.7s-3.7-.5-4.8-1.6c-1.1-1-1.7-2.6-1.7-4.3,0-3.9,2.9-6.2,6.8-6.2s2.7.3,3.3.6l-.6,2.1c-.6-.3-1.5-.5-2.8-.5-2.2,0-3.9,1.3-3.9,3.8s1.5,3.9,3.7,3.9,1.1,0,1.3-.2v-2.5h-1.8v-2.1h4.4v6.2Z"/>
  </g>
  <rect class="st1" x="123.6" y="22.2" width="13" height="34.5"/>
  <g>
    <path class="st1" d="M26.9,50.5h-11.6l-2.3,6.1H.4c.5-1.3.6-1.2,1.8-4.1l13.1-30.3h12.1l15.2,34.5h-13.1M21.5,31.3l-3.8,10.9h7.2l-3.4-10.9Z"/>
    <path class="st1" d="M106.6,50.5h-11.6l-2.3,6.1h-12.6c.5-1.3.6-1.2,1.8-4.1l13.1-30.3h12.1l15.2,34.5h-13.1M101.1,31.3l-3.8,10.9h7.2l-3.4-10.9Z"/>
    <path class="st1" d="M71.8,39s9.2.7,8.6,8.3c-.5,6.6-4.6,9.5-13.5,9.5h-22.1V22.2c2.4,0,5.2,0,9.1,0h12.5c9.1-.3,12.8,3.8,12.8,8.5,0,0,.3,6.1-7.3,8.4ZM63.3,35.2c1.7,0,2.7-1,2.7-2.6s-1-2.5-2.8-2.5h-5.6v5.1h5.6ZM57.7,48.1h6.1c2.1,0,3.4-1,3.4-2.7s-1.3-2.7-3.4-2.7h-6.1v5.4Z"/>
  </g>
  <g>
    <path class="st0" d="M195.1,4.7h-12.1v51.9h40.2s4.1-1,4.1-4.7v-20.8h-12.6v14.9h-19.6V4.7Z"/>
    <rect class="st0" x="233.4" y="10.6" width="12.5" height="46"/>
    <path class="st0" d="M247.1.2v5s-4.9-2.5-7.5-.1c-.4.3-1.9,2.7-9.2,2.4V2.9s4.3.7,6.4-1.1c2.5-2.5,10.1-1.7,10.2-1.6Z"/>
  </g>
  <circle class="st0" cx="212.3" cy="63.8" r="5.1"/>
  <path class="st0" d="M139.7,46.4v10.2h29.9c2.7,0,4.7-2.3,4.7-4.9v-13.3h0c0-9.3-9.4-16.2-16.9-16.2h-17.8v10.5h15.2c4.4,0,7,4.4,7,6.8h0v6.8h-22.2"/>
</svg>