<svg width="58" height="42" viewBox="0 0 58 42" fill="none" xmlns="http://www.w3.org/2000/svg">
<path d="M55.823 17.029C55.823 17.9 55.115 18.608 54.246 18.608H36.454L39.741 15.601C39.917 15.439 40.017 15.211 40.017 14.97V8.85604C40.017 7.98504 40.725 7.27704 41.597 7.27704H51.072H54.246C55.115 7.27704 55.823 7.98504 55.823 8.85604V17.029ZM50.218 35.633H29.366C29.353 35.632 29.34 35.631 29.327 35.631C28.855 35.631 28.472 36.012 28.472 36.486C28.472 37.08 27.988 37.562 27.396 37.562C26.81 37.562 26.331 37.089 26.32 36.506C26.32 36.5 26.321 36.494 26.321 36.487C26.321 36.192 26.172 35.932 25.944 35.778C25.807 35.685 25.642 35.631 25.464 35.631C25.451 35.631 25.438 35.632 25.425 35.633H4.575V3.68204C4.575 2.59504 5.459 1.71104 6.546 1.71104H48.247C49.334 1.71104 50.218 2.59504 50.218 3.68204V5.56704H41.597C39.781 5.56704 38.306 7.04204 38.306 8.85604V14.593L33.675 18.835C33.415 19.073 33.327 19.446 33.455 19.775C33.583 20.104 33.901 20.32 34.253 20.32H50.218V35.633ZM53.083 38.232C53.083 39.319 52.199 40.203 51.112 40.203H3.681C2.594 40.203 1.71 39.319 1.71 38.232V37.342H3.72H24.745C25.106 38.462 26.157 39.273 27.395 39.273C28.634 39.273 29.686 38.462 30.047 37.342H51.073H53.083V38.232ZM54.246 5.56704H51.927V3.68204C51.927 1.65004 50.277 3.8147e-05 48.247 3.8147e-05H6.546C4.516 3.8147e-05 2.866 1.65304 2.866 3.68204V35.633H0.855003C0.384003 35.633 0 36.014 0 36.487V38.234C0 40.264 1.651 41.915 3.681 41.915H51.112C53.142 41.915 54.795 40.264 54.795 38.234V36.487C54.795 36.016 54.414 35.633 53.94 35.633H51.927V20.32H54.246C56.06 20.32 57.534 18.845 57.534 17.031V8.85604C57.534 7.04204 56.06 5.56704 54.246 5.56704Z" fill="#9A20AA"/>
<path d="M26.4173 4.94336H28.3753C28.8473 4.94336 29.2303 4.56036 29.2303 4.08836C29.2303 3.61736 28.8493 3.23436 28.3753 3.23436H26.4173C25.9463 3.23436 25.5623 3.61736 25.5623 4.08836C25.5623 4.56036 25.9443 4.94336 26.4173 4.94336Z" fill="#9A20AA"/>
<path d="M30.0638 18.3254C30.0638 19.6864 28.9538 20.7944 27.5918 20.7944C27.5248 20.7944 27.4598 20.8034 27.3978 20.8174C27.3348 20.8034 27.2698 20.7944 27.2028 20.7944C25.8388 20.7944 24.7308 19.6874 24.7308 18.3254V15.1984C24.7308 13.8364 25.8408 12.7284 27.2028 12.7284H27.5918C28.9558 12.7284 30.0638 13.8364 30.0638 15.1984V18.3254ZM31.7708 18.3274V15.2004C31.7708 12.8944 29.8968 11.0194 27.5898 11.0194H27.2028C24.8968 11.0194 23.0218 12.8944 23.0218 15.2004V18.3274C23.0218 19.3264 23.3758 20.2464 23.9628 20.9664C19.6878 21.7184 18.6398 24.7834 18.4038 25.8684C18.3408 26.0774 18.3088 26.2974 18.3088 26.5174V30.3144C18.3088 30.7864 18.6918 31.1694 19.1638 31.1694C19.6348 31.1694 20.0188 30.7884 20.0188 30.3144V26.5174C20.0188 26.4544 20.0268 26.3954 20.0458 26.3374C20.0538 26.3124 20.0598 26.2844 20.0668 26.2574C20.3028 25.1304 21.3588 22.5084 26.0068 22.5084H27.2008C27.2678 22.5084 27.3328 22.4994 27.3958 22.4854C27.4578 22.4994 27.5228 22.5084 27.5898 22.5084H28.7838C33.4318 22.5084 34.4878 25.1304 34.7248 26.2574C34.7308 26.2844 34.7368 26.3104 34.7458 26.3374C34.7638 26.3954 34.7728 26.4564 34.7728 26.5174V30.3144C34.7728 30.7864 35.1538 31.1694 35.6268 31.1694C36.1008 31.1694 36.4838 30.7884 36.4818 30.3144V26.5174C36.4818 26.2974 36.4518 26.0794 36.3898 25.8684C36.1508 24.7834 35.1038 21.7184 30.8308 20.9664C31.4188 20.2464 31.7708 19.3264 31.7708 18.3274Z" fill="#9A20AA"/>
</svg>