<svg width="41" height="42" viewBox="0 0 41 42" fill="none" xmlns="http://www.w3.org/2000/svg">
<path d="M39.016 40.563H1.352V38.484C1.352 38.074 1.685 37.741 2.095 37.741H3.681H3.684H3.686H16.44H16.443H36.682H36.684H36.687H38.273C38.683 37.741 39.016 38.074 39.016 38.484V40.563ZM10.063 32.498H10.065H10.068C12.563 32.499 14.755 34.093 15.563 36.389H4.567C5.375 34.093 7.568 32.499 10.063 32.498ZM7.107 28.187C7.107 26.556 8.434 25.229 10.065 25.229C11.696 25.229 13.023 26.556 13.023 28.187C13.023 29.819 11.698 31.144 10.068 31.146H10.065H10.063C8.433 31.144 7.107 29.818 7.107 28.187ZM20.18 31.234H20.184H20.188C22.067 31.235 23.786 32.115 24.883 33.611C24.195 34.399 23.675 35.342 23.383 36.389H16.98C16.688 35.344 16.169 34.402 15.482 33.615C16.579 32.116 18.3 31.235 20.18 31.234ZM17.224 26.922C17.224 25.29 18.552 23.962 20.184 23.962C21.816 23.962 23.144 25.29 23.144 26.922C23.144 28.554 21.818 29.879 20.188 29.881H20.184H20.18C18.55 29.879 17.224 28.552 17.224 26.922ZM30.3 32.495H30.303C32.799 32.496 34.993 34.091 35.801 36.389H24.799C25.607 34.091 27.801 32.496 30.297 32.495H30.3ZM27.34 28.183C27.34 26.551 28.668 25.223 30.3 25.223C31.932 25.223 33.26 26.551 33.26 28.183C33.26 29.815 31.934 31.141 30.303 31.143H30.3H30.298C28.667 31.141 27.34 29.814 27.34 28.183ZM38.273 36.389H37.218C36.6 34.179 34.965 32.434 32.889 31.629C33.935 30.841 34.612 29.59 34.612 28.183C34.612 25.805 32.678 23.871 30.3 23.871C27.923 23.871 25.988 25.805 25.988 28.183C25.988 29.59 26.666 30.841 27.711 31.629C27.046 31.886 26.427 32.24 25.871 32.676C25.061 31.621 23.992 30.828 22.781 30.361C23.822 29.574 24.496 28.325 24.496 26.922C24.496 24.544 22.562 22.61 20.184 22.61C17.807 22.61 15.872 24.544 15.872 26.922C15.872 28.325 16.546 29.573 17.588 30.361C16.374 30.829 15.305 31.622 14.494 32.679C13.938 32.244 13.319 31.889 12.654 31.631C13.699 30.844 14.376 29.593 14.376 28.187C14.376 25.811 12.442 23.877 10.065 23.877C7.688 23.877 5.755 25.811 5.755 28.187C5.755 29.593 6.432 30.844 7.476 31.631C5.402 32.436 3.768 34.18 3.151 36.389H2.095C0.939997 36.389 0 37.329 0 38.484V40.675C0 41.359 0.555998 41.915 1.24 41.915H39.128C39.812 41.915 40.368 41.359 40.368 40.675V38.484C40.368 37.329 39.428 36.389 38.273 36.389ZM21.742 14.978C21.742 15.351 21.439 15.654 21.066 15.654H18.46C18.086 15.654 17.784 15.351 17.784 14.978C17.784 14.604 18.086 14.302 18.46 14.302H21.066C21.439 14.302 21.742 14.604 21.742 14.978ZM34.191 14.978C34.191 15.351 33.888 15.654 33.515 15.654H24.05C23.676 15.654 23.374 15.351 23.374 14.978C23.374 14.605 23.676 14.302 24.05 14.302H33.515C33.888 14.302 34.191 14.605 34.191 14.978ZM34.115 11.283C34.115 11.656 33.813 11.959 33.439 11.959H30.97C30.597 11.959 30.294 11.656 30.294 11.283C30.294 10.91 30.597 10.607 30.97 10.607H33.439C33.813 10.607 34.115 10.91 34.115 11.283ZM19.634 11.283C19.634 10.91 19.937 10.607 20.31 10.607H28.144C28.517 10.607 28.82 10.91 28.82 11.283C28.82 11.657 28.517 11.959 28.144 11.959H20.31C19.937 11.959 19.634 11.657 19.634 11.283ZM20.556 7.58804C20.556 7.21504 20.859 6.91204 21.232 6.91204H33.439C33.813 6.91204 34.115 7.21504 34.115 7.58804C34.115 7.96204 33.813 8.26404 33.439 8.26404H21.232C20.859 8.26404 20.556 7.96204 20.556 7.58804ZM34.191 3.89404C34.191 4.26704 33.888 4.57004 33.515 4.57004H30.833C30.46 4.57004 30.157 4.26704 30.157 3.89404C30.157 3.52004 30.46 3.21804 30.833 3.21804H33.515C33.888 3.21804 34.191 3.52004 34.191 3.89404ZM20.929 3.89404C20.929 3.52004 21.231 3.21804 21.605 3.21804H27.763C28.137 3.21804 28.439 3.52004 28.439 3.89404C28.439 4.26704 28.137 4.57004 27.763 4.57004H21.605C21.231 4.57004 20.929 4.26704 20.929 3.89404ZM39.016 14.944C39.016 16.364 37.861 17.519 36.441 17.519H15.098C13.678 17.519 12.523 16.364 12.523 14.944V13.454L13.967 12.705C15.016 12.161 15.324 11.178 15.137 10.302L19.473 5.23104C19.716 4.94704 19.683 4.52004 19.399 4.27804C19.115 4.03504 18.689 4.06804 18.446 4.35204L14.427 9.05104C13.942 8.60104 13.262 8.34504 12.523 8.49604V3.92704C12.523 2.50804 13.678 1.35204 15.098 1.35204H36.441C37.861 1.35204 39.016 2.50804 39.016 3.92704V14.944ZM7.811 22.293H1.608C1.469 22.293 1.352 22.176 1.352 22.037V11.921C1.352 10.07 2.858 8.56404 4.71 8.56404C6.314 8.56404 7.7 9.70804 8.006 11.285L8.178 12.173L12.168 10.104L12.17 10.103L12.523 9.92004C13.282 9.52704 13.677 10.238 13.72 10.32C13.787 10.451 14.087 11.12 13.345 11.505L8.067 14.241L6.422 15.094C6.214 15.202 5.961 15.22 5.728 15.144C5.502 15.07 5.323 14.92 5.224 14.721C5.125 14.525 5.097 14.315 5.141 14.114C5.22 13.749 4.989 13.389 4.624 13.31C4.259 13.23 3.899 13.461 3.82 13.826C3.711 14.325 3.78 14.857 4.014 15.326C4.277 15.851 4.737 16.243 5.31 16.43C5.54 16.504 5.779 16.542 6.017 16.542C6.374 16.542 6.728 16.458 7.045 16.294L8.067 15.764V22.037C8.067 22.176 7.95 22.293 7.811 22.293ZM2.071 4.57304C2.071 3.11904 3.255 1.93504 4.71 1.93504C6.165 1.93504 7.348 3.11904 7.348 4.57304C7.348 6.02804 6.164 7.21204 4.71 7.21204C3.255 7.21204 2.071 6.02804 2.071 4.57304ZM36.441 3.8147e-05H15.098C12.933 3.8147e-05 11.171 1.76204 11.171 3.92704V9.09804L9.084 10.18C8.682 9.17104 7.945 8.34504 7.022 7.82204C8.037 7.09804 8.7 5.91204 8.7 4.57304C8.7 2.37304 6.91 0.583038 4.709 0.583038C2.509 0.583038 0.718998 2.37304 0.718998 4.57304C0.718998 5.91204 1.382 7.09704 2.396 7.82204C0.967 8.63103 0 10.165 0 11.921V22.037C0 22.924 0.720998 23.645 1.608 23.645H7.811C8.698 23.645 9.419 22.924 9.419 22.037V15.063L11.171 14.155V14.944C11.171 17.109 12.933 18.871 15.098 18.871H36.441C38.606 18.871 40.368 17.109 40.368 14.944V3.92704C40.368 1.76204 38.606 3.8147e-05 36.441 3.8147e-05Z" fill="#9A20AA"/>
</svg>