<svg width="42" height="42" viewBox="0 0 42 42" fill="none" xmlns="http://www.w3.org/2000/svg">
<path d="M10.439 8.37055C11.59 8.38055 12.52 7.47455 12.544 6.31655C12.569 5.16955 11.606 4.18955 10.458 4.18955C9.324 4.19055 8.377 5.13855 8.371 6.27755C8.365 7.42255 9.291 8.36055 10.439 8.37055ZM17.419 30.0176C17.421 28.8706 16.493 27.9296 15.352 27.9206C14.203 27.9116 13.233 28.8836 13.246 30.0306C13.26 31.1756 14.2 32.1016 15.345 32.0986C16.499 32.0946 17.417 31.1736 17.419 30.0176ZM4.202 32.0986C5.343 32.0906 6.285 31.1406 6.278 30.0056C6.27 28.8686 5.322 27.9226 4.187 27.9206C3.029 27.9176 2.089 28.8756 2.105 30.0416C2.12 31.1996 3.045 32.1066 4.202 32.0986ZM18.117 40.5036C18.117 38.7096 18.157 36.9526 18.101 35.1986C18.071 34.2406 17.312 33.5916 16.343 33.5476C15.772 33.5226 15.2 33.5356 14.629 33.5376C13.272 33.5426 12.56 34.2476 12.556 35.5976C12.551 37.0976 12.554 38.5976 12.556 40.0976C12.556 40.2286 12.572 40.3596 12.581 40.5036H18.117ZM6.94 40.5026C6.94 38.6626 6.977 36.8516 6.923 35.0426C6.9 34.2666 6.144 33.6156 5.358 33.5646C4.72 33.5236 4.079 33.5366 3.44 33.5386C2.121 33.5436 1.395 34.2736 1.392 35.5906C1.39 36.9806 1.392 38.3716 1.392 39.7626V40.5026H6.94ZM11.173 19.5746V31.4166H12.137C12.093 31.2746 12.054 31.1596 12.021 31.0436C11.636 29.6906 11.935 28.5056 12.939 27.5256C13.167 27.3026 13.248 27.0926 13.248 26.7856C13.24 21.9146 13.247 17.0436 13.235 12.1726C13.233 11.6556 13.42 11.3486 13.883 11.1136C15.98 10.0456 18.063 8.94955 20.15 7.86155C20.331 7.76755 20.515 7.67455 20.679 7.55555C20.991 7.32955 21.106 6.91755 20.956 6.57155C20.798 6.20855 20.512 6.01355 20.116 6.05855C19.92 6.08055 19.723 6.16455 19.545 6.25655C17.443 7.34356 15.348 8.44655 13.239 9.52055C12.937 9.67455 12.57 9.76055 12.231 9.76655C10.788 9.79355 9.344 9.77355 7.901 9.77955C6.078 9.78755 4.901 10.6816 4.394 12.4266C4.079 13.5116 3.76 14.5956 3.445 15.6816C3.18 16.5966 2.914 17.5116 2.66 18.4306C2.527 18.9146 2.744 19.3536 3.161 19.4976C3.607 19.6516 4.046 19.4306 4.239 18.9506C4.28 18.8496 4.305 18.7426 4.337 18.6386C4.978 16.5996 5.617 14.5596 6.261 12.5216C6.408 12.0576 6.685 11.8416 7.038 11.8856C7.444 11.9366 7.663 12.2326 7.674 12.7466C7.677 12.8556 7.675 12.9656 7.675 13.0746C7.675 17.8226 7.688 22.5706 7.666 27.3186C7.66 28.6846 7.86 30.0696 7.386 31.4096H9.78V19.5746H11.173ZM0 34.8746C0.229 34.0776 0.558 33.3426 1.253 32.8336C1.395 32.7296 1.542 32.6316 1.713 32.5136C0.405 30.8716 0.276 29.1916 1.708 27.5766C2.781 26.3656 4.156 26.2766 6.255 27.1626V17.3976C6.238 17.3896 6.221 17.3826 6.204 17.3746C6.014 17.9736 5.868 18.5916 5.621 19.1666C5.427 19.6166 5.179 20.0856 4.832 20.4176C4.128 21.0936 3.041 21.1206 2.222 20.5876C1.422 20.0676 1.03 19.0856 1.292 18.1616C1.913 15.9746 2.533 13.7866 3.186 11.6096C3.7 9.89755 5.439 8.54755 7.211 8.42455C7.342 8.41555 7.473 8.39255 7.67 8.36655C7.048 7.46455 6.842 6.51655 7.073 5.50055C7.25 4.71955 7.663 4.07655 8.292 3.56855C9.443 2.63955 11.108 2.54155 12.368 3.37455C13.421 4.07155 14.405 5.54255 13.669 7.71555C13.83 7.64055 13.96 7.58655 14.085 7.52155C15.775 6.64455 17.459 5.75555 19.156 4.89155C20.203 4.35755 21.468 4.71355 22.065 5.67455C22.692 6.68355 22.47 7.95255 21.53 8.67455C21.359 8.80555 21.162 8.90455 20.969 9.00555C18.967 10.0496 16.965 11.0936 14.958 12.1276C14.727 12.2476 14.626 12.3746 14.627 12.6536C14.638 17.1686 14.635 21.6846 14.636 26.2006C14.636 26.3196 14.649 26.4386 14.656 26.5666C16.214 26.3806 17.487 26.8516 18.288 28.1946C19.191 29.7086 18.931 31.1656 17.81 32.4896C18.061 32.6856 18.313 32.8486 18.525 33.0536C19.186 33.6896 19.517 34.4796 19.522 35.3956C19.53 37.2776 19.52 39.1606 19.529 41.0436C19.531 41.4406 19.364 41.7166 19.037 41.9146H11.684C11.302 41.7456 11.153 41.4486 11.154 41.0356C11.162 39.1656 11.156 37.2966 11.159 35.4276C11.161 34.4796 11.496 33.6716 12.188 33.0176C12.23 32.9776 12.261 32.9256 12.313 32.8596H7.172C7.992 33.5986 8.371 34.4626 8.365 35.5056C8.354 37.3336 8.356 39.1616 8.366 40.9906C8.369 41.4136 8.245 41.7356 7.844 41.9146H0V34.8746Z" fill="#9A20AA"/>
<path d="M41.343 -3.05176e-05C41.729 0.218969 41.84 0.553968 41.84 0.989969C41.83 6.37897 41.833 11.768 41.833 17.157C41.833 17.94 41.612 18.168 40.848 18.168C32.719 18.168 24.59 18.168 16.461 18.168H16.063V16.779H40.417V1.42097H1.414V14.654H0V-3.05176e-05H41.343Z" fill="#9A20AA"/>
<path d="M26.4965 32.0986C27.6405 32.0986 28.5805 31.1646 28.5875 30.0216C28.5935 28.8896 27.6495 27.9306 26.5145 27.9196C25.3595 27.9086 24.4085 28.8616 24.4145 30.0256C24.4205 31.1816 25.3415 32.0986 26.4965 32.0986ZM29.2545 40.5206C29.2545 38.6796 29.2825 36.8946 29.2415 35.1116C29.2225 34.2976 28.4805 33.6166 27.6555 33.5636C27.0185 33.5236 26.3775 33.5356 25.7385 33.5386C24.4275 33.5456 23.7035 34.2816 23.7015 35.6026C23.6985 37.1026 23.6995 38.6026 23.7015 40.1026C23.7015 40.2336 23.7135 40.3646 23.7215 40.5206H28.8565H29.2545ZM22.7955 41.9146C22.4155 41.6906 22.2975 41.3556 22.3015 40.9206C22.3185 39.3256 22.3475 37.7286 22.2965 36.1346C22.2475 34.6116 22.6105 33.3276 24.0525 32.5076C23.2275 31.6086 22.8785 30.5806 23.0705 29.4056C23.1995 28.6156 23.5705 27.9336 24.1825 27.4116C25.5735 26.2286 27.4185 26.2226 28.7665 27.3806C29.5315 28.0375 29.9245 28.8866 29.9675 29.8836C30.0095 30.8816 29.6395 31.7426 28.9445 32.4896C29.1165 32.6116 29.2615 32.7066 29.3975 32.8126C30.2795 33.4946 30.6765 34.4086 30.6755 35.5126C30.6745 37.3396 30.6705 39.1676 30.6785 40.9946C30.6805 41.4166 30.5555 41.7406 30.1495 41.9146H22.7955Z" fill="#9A20AA"/>
<path d="M39.7291 30.0326C39.7401 28.8806 38.8261 27.9376 37.6801 27.9206C36.5331 27.9026 35.5551 28.8666 35.5561 30.0136C35.5561 31.1526 36.4971 32.0936 37.6401 32.0976C38.7961 32.1026 39.7181 31.1906 39.7291 30.0326ZM40.4411 40.5056C40.4411 40.3286 40.4421 40.1936 40.4411 40.0596C40.4381 38.4506 40.4661 36.8406 40.4191 35.2336C40.3921 34.2826 39.6461 33.5996 38.6901 33.5516C38.1061 33.5216 37.5201 33.5356 36.9351 33.5376C35.5811 33.5426 34.8711 34.2516 34.8681 35.6026C34.8641 37.1026 34.8671 38.6016 34.8681 40.1016C34.8681 40.2326 34.8831 40.3626 34.8921 40.5056H40.4411ZM33.9891 41.9146C33.5881 41.7346 33.4641 41.4136 33.4671 40.9906C33.4771 39.1626 33.4741 37.3356 33.4701 35.5076C33.4681 34.1956 34.0331 33.2066 35.1961 32.5076C34.3471 31.5436 33.9761 30.4476 34.2731 29.1856C34.4831 28.2976 34.9911 27.6066 35.7391 27.0936C37.0811 26.1736 39.0181 26.3866 40.1531 27.5816C41.3031 28.7916 41.5951 30.8586 40.1171 32.4866C40.1761 32.5366 40.2301 32.5936 40.2941 32.6346C41.3031 33.2806 41.8181 34.2116 41.8281 35.4016C41.8441 37.2836 41.8271 39.1656 41.8381 41.0476C41.8401 41.4496 41.6721 41.7196 41.3431 41.9146H33.9891Z" fill="#9A20AA"/>
<path d="M25.1045 7.72375H39.0255V9.05176H25.1045V7.72375Z" fill="#9A20AA"/>
<path d="M36.2476 13.2354H22.3306V11.9043H36.2476V13.2354Z" fill="#9A20AA"/>
<path d="M23.0295 3.53442H36.9175V4.87354H23.0295V3.53442Z" fill="#9A20AA"/>
</svg>