<svg width="50" height="50" viewBox="0 0 50 50" fill="none" xmlns="http://www.w3.org/2000/svg">
<mask id="mask0_2013_1692" style="mask-type:luminance" maskUnits="userSpaceOnUse" x="0" y="0" width="50" height="50">
<path d="M0 21.5999C0 33.3999 9.69998 43.0999 21.6 43.0999C25.6 43.0999 29.4 42 32.7 40L41.2 48.5C42.2 49.5 43.5 50 44.8 50C46.2 50 47.5 49.5 48.5 48.5C50.5 46.5 50.5 43.2 48.5 41.2L40 32.7C42 29.4 43.1 25.5999 43.1 21.5999C43.1 9.69985 33.4 0 21.6 0C9.69998 0 0 9.69985 0 21.5999ZM1.70001 21.5999C1.70001 10.5999 10.6 1.69995 21.6 1.69995C32.5 1.69995 41.4 10.5999 41.4 21.5999C41.4 32.4999 32.5 41.3999 21.6 41.3999C10.6 41.3999 1.70001 32.4999 1.70001 21.5999ZM34.2 39C36 37.7 37.7 36 39 34.2L41.5 36.5999L36.6 41.5L34.2 39ZM42.4 47.2998L37.8 42.7L42.7 37.7998L47.3 42.3999C48.6 43.6999 48.6 45.8998 47.3 47.2998C46.6 47.8998 45.7 48.2998 44.8 48.2998C43.9 48.2998 43.1 47.8998 42.4 47.2998ZM3.39996 21.5999C3.39996 31.4999 11.6 39.7 21.6 39.7C31.5 39.7 39.7 31.4999 39.7 21.5999C39.7 11.5999 31.5 3.5 21.6 3.5C11.6 3.5 3.39996 11.5999 3.39996 21.5999ZM5.20001 21.5999C5.20001 12.4999 12.5 5.19995 21.6 5.19995C30.6 5.19995 37.9 12.4999 37.9 21.5999C37.9 30.5999 30.6 37.8999 21.6 37.8999C12.5 37.8999 5.20001 30.5999 5.20001 21.5999ZM19.3 9.8999L10.4 25.3999C9.89996 26.2999 9.89996 27.2 10.4 28C10.8 28.8 11.7 29.2998 12.6 29.2998H30.5C31.4 29.2998 32.3 28.8 32.8 28C33.2 27.2 33.2 26.2999 32.8 25.3999L23.8 9.8999C23.3 9.0999 22.5 8.59985 21.6 8.59985C20.6 8.59985 19.8 9.0999 19.3 9.8999ZM11.8 27.2C11.8 27 11.6 26.6998 11.8 26.2998L20.8 10.7998C21 10.3998 21.4 10.3999 21.6 10.3999C21.7 10.3999 22.1 10.3998 22.3 10.7998L31.3 26.2998C31.5 26.6998 31.3 27 31.3 27.2C31.2 27.3 31 27.5999 30.5 27.5999H12.6C12.1 27.5999 11.9 27.3 11.8 27.2ZM20.7 15.5V19.7998C20.7 20.2998 21.1 20.7 21.6 20.7C22 20.7 22.4 20.2998 22.4 19.7998V15.5C22.4 15.1 22 14.7 21.6 14.7C21.1 14.7 20.7 15.1 20.7 15.5ZM20 24.0999C20 24.9999 20.7 25.7 21.6 25.7C22.4 25.7 23.1 24.9999 23.1 24.0999C23.1 23.2999 22.4 22.5999 21.6 22.5999C20.7 22.5999 20 23.2999 20 24.0999Z" fill="white"/>
</mask>
<g mask="url(#mask0_2013_1692)">
<path d="M-633.2 -3426.1H1286.8V2523.73H-633.2V-3426.1Z" fill="url(#paint0_linear_2013_1692)"/>
</g>
<defs>
<linearGradient id="paint0_linear_2013_1692" x1="0.00161536" y1="25.0095" x2="50.0016" y2="25.0095" gradientUnits="userSpaceOnUse">
<stop stop-color="#9A20AA"/>
<stop offset="0.170238" stop-color="#AF2AC3"/>
<stop offset="0.320238" stop-color="#BD30D4"/>
<stop offset="0.477381" stop-color="#C835E1"/>
<stop offset="0.670238" stop-color="#D038EA"/>
<stop offset="0.836905" stop-color="#D33AEE"/>
<stop offset="1" stop-color="#D43AEF"/>
</linearGradient>
</defs>
</svg>