<svg width="50" height="36" viewBox="0 0 50 36" fill="none" xmlns="http://www.w3.org/2000/svg">
<mask id="mask0_2013_1646" style="mask-type:luminance" maskUnits="userSpaceOnUse" x="0" y="0" width="50" height="36">
<path d="M5.90002 0C2.60002 0 0 2.6999 0 5.8999V29.8C0 33.1 2.60002 35.7 5.90002 35.7H44.1001C47.3001 35.7 50 33.1 50 29.8V5.8999C50 2.6999 47.3001 0 44.1001 0H5.90002ZM3.6001 29.8V5.8999C3.6001 4.5999 4.60002 3.6001 5.90002 3.6001H44.1001C45.4001 3.6001 46.4 4.5999 46.4 5.8999V29.8C46.4 31.1 45.4001 32.2 44.1001 32.2H5.90002C4.60002 32.2 3.6001 31.1 3.6001 29.8ZM11.1001 9.6001C10.5001 10.4001 10.6 11.6 11.4 12.2L18.9 17.8999L11.4 23.6001C10.6 24.2001 10.5001 25.3001 11.1001 26.1001C11.4001 26.6001 11.9 26.8 12.5 26.8C12.9 26.8 13.3001 26.6999 13.6001 26.3999L23 19.3C23.1 19.2 23.2 19.1 23.3 19C23.9 18.2 23.7 16.9999 23 16.3999L13.6001 9.30005C13.3001 9.10005 12.9 8.8999 12.5 8.8999C11.9 8.8999 11.4001 9.2001 11.1001 9.6001ZM26.6001 23.2C25.6001 23.2 24.8 24 24.8 25C24.8 26 25.6001 26.8 26.6001 26.8H37.5C38.5 26.8 39.3 26 39.3 25C39.3 24 38.5 23.2 37.5 23.2H26.6001Z" fill="white"/>
</mask>
<g mask="url(#mask0_2013_1646)">
<path d="M-1527.7 -3747H392.3V2202.83H-1527.7V-3747Z" fill="url(#paint0_linear_2013_1646)"/>
</g>
<defs>
<linearGradient id="paint0_linear_2013_1646" x1="-0.0118883" y1="17.8786" x2="49.9881" y2="17.8786" gradientUnits="userSpaceOnUse">
<stop stop-color="#9A20AA"/>
<stop offset="0.170238" stop-color="#AF2AC3"/>
<stop offset="0.320238" stop-color="#BD30D4"/>
<stop offset="0.477381" stop-color="#C835E1"/>
<stop offset="0.670238" stop-color="#D038EA"/>
<stop offset="0.836905" stop-color="#D33AEE"/>
<stop offset="1" stop-color="#D43AEF"/>
</linearGradient>
</defs>
</svg>