<svg width="50" height="50" viewBox="0 0 50 50" fill="none" xmlns="http://www.w3.org/2000/svg">
<mask id="mask0_2013_1618" style="mask-type:luminance" maskUnits="userSpaceOnUse" x="0" y="0" width="51" height="50">
<path d="M22.5 2.09985C22.3 3.29985 23.0001 4.4999 24.2001 4.8999V6.69995C23.0001 6.79995 21.9 6.89995 20.8 7.19995V5C20.8 3.6 19.7 2.5 18.3 2.5H15.7001C15.3001 1.4 14.1 0.699902 12.9 0.899902C11.7 1.0999 10.8 2.0998 10.8 3.2998C10.8 4.5998 11.7 5.5998 12.9 5.7998C14.1 5.9998 15.3001 5.29995 15.7001 4.19995H18.3C18.8 4.19995 19.2001 4.6 19.2001 5V7.59985C13.7001 9.49985 9.5001 13.7 7.6001 19.2H5C4.5 19.2 4.20007 18.7998 4.20007 18.2998V15.7C5.30007 15.3 6.00005 14.0999 5.80005 12.8999C5.60005 11.6999 4.50005 10.7998 3.30005 10.7998C2.10005 10.7998 1.10002 11.6999 0.900024 12.8999C0.700024 14.0999 1.3 15.3 2.5 15.7V18.2998C2.5 19.6998 3.6 20.7998 5 20.7998H7.1001C6.9001 21.8998 6.70007 23.1 6.70007 24.2H4.80005C4.40005 23 3.3001 22.3 2.1001 22.5C0.900098 22.8 0 23.8 0 25C0 26.2 0.900098 27.3 2.1001 27.5C3.3001 27.7 4.40005 26.9998 4.80005 25.7998H6.70007C6.70007 26.9998 6.9001 28.1 7.1001 29.2H5C3.6 29.2 2.5 30.3 2.5 31.7V34.2998C1.3 34.6998 0.700024 35.8999 0.900024 37.0999C1.10002 38.2999 2.10005 39.2 3.30005 39.2C4.50005 39.2 5.60005 38.2999 5.80005 37.0999C6.00005 35.8999 5.30007 34.6998 4.20007 34.2998V31.7C4.20007 31.2 4.5 30.7998 5 30.7998H7.6001C9.5001 36.2998 13.7001 40.4999 19.2001 42.3999V45C19.2001 45.5 18.8 45.7998 18.3 45.7998H15.7001C15.3001 44.6998 14.1 44 12.9 44.2C11.7 44.4 10.8 45.5 10.8 46.7C10.8 47.9 11.7 48.8999 12.9 49.0999C14.1 49.2999 15.3001 48.7 15.7001 47.5H18.3C19.7 47.5 20.8 46.4 20.8 45V42.8999C21.9 43.0999 23.0001 43.2998 24.2001 43.2998V45.2C23.0001 45.6 22.3 46.6999 22.5 47.8999C22.7 49.0999 23.8 50 25 50C26.2 50 27.3 49.0999 27.5 47.8999C27.7 46.6999 27 45.6 25.8 45.2V43.2998C26.9 43.2998 28.1001 43.0999 29.2001 42.8999V45C29.2001 46.4 30.3001 47.5 31.7001 47.5H34.3C34.7001 48.7 35.9001 49.2999 37.1001 49.0999C38.3001 48.8999 39.2001 47.9 39.2001 46.7C39.2001 45.5 38.3001 44.4 37.1001 44.2C35.9001 44 34.7001 44.6998 34.3 45.7998H31.7001C31.2001 45.7998 30.8 45.5 30.8 45V42.3999C36.3 40.4999 40.5 36.2998 42.4 30.7998H45C45.4 30.7998 45.8 31.2 45.8 31.7V34.2998C44.7001 34.6998 44.0001 35.8999 44.2001 37.0999C44.4001 38.2999 45.4001 39.2 46.7001 39.2C47.9001 39.2 48.9001 38.2999 49.1001 37.0999C49.3001 35.8999 48.6 34.6998 47.5 34.2998V31.7C47.5 30.3 46.4 29.2 45 29.2H42.8C43.1 28.1 43.3 26.9998 43.3 25.7998H45.1001C45.6001 26.9998 46.8001 27.6999 48.1001 27.3999C49.3001 27.0999 50.1 26 50 24.7C49.8 23.5 48.8 22.5 47.5 22.5C46.4 22.5 45.5001 23.2 45.1001 24.2H43.3C43.3 23.1 43.1 21.8998 42.8 20.7998H45C46.4 20.7998 47.5 19.6998 47.5 18.2998V15.7C48.6 15.3 49.3001 14.0999 49.1001 12.8999C48.9001 11.6999 47.9001 10.7998 46.7001 10.7998C45.4001 10.7998 44.4001 11.6999 44.2001 12.8999C44.0001 14.0999 44.7001 15.3 45.8 15.7V18.2998C45.8 18.7998 45.4 19.2 45 19.2H42.4C40.5 13.7 36.3 9.49985 30.8 7.59985V5C30.8 4.6 31.2001 4.19995 31.7001 4.19995H34.3C34.7001 5.29995 35.9001 5.9998 37.1001 5.7998C38.3001 5.5998 39.2001 4.5998 39.2001 3.2998C39.2001 2.0998 38.3001 1.0999 37.1001 0.899902C35.9001 0.699902 34.7001 1.4 34.3 2.5H31.7001C30.3001 2.5 29.2001 3.6 29.2001 5V7.19995C28.1001 6.89995 26.9 6.79995 25.8 6.69995V4.8999C27 4.4999 27.7 3.29985 27.5 2.09985C27.3 0.899853 26.2 0 25 0C23.8 0 22.7 0.899853 22.5 2.09985ZM24.2001 2.5C24.2001 2.1 24.5 1.69995 25 1.69995C25.5 1.69995 25.8 2.1 25.8 2.5C25.8 3 25.5 3.2998 25 3.2998C24.5 3.2998 24.2001 3 24.2001 2.5ZM35.8 3.2998C35.8 2.8998 36.2001 2.5 36.7001 2.5C37.1001 2.5 37.5 2.8998 37.5 3.2998C37.5 3.7998 37.1001 4.19995 36.7001 4.19995C36.2001 4.19995 35.8 3.7998 35.8 3.2998ZM12.5 3.2998C12.5 2.8998 12.9 2.5 13.3 2.5C13.8 2.5 14.2001 2.8998 14.2001 3.2998C14.2001 3.5998 14.1 3.7999 13.9 3.8999C13.8 4.0999 13.5 4.19995 13.3 4.19995C12.9 4.19995 12.5 3.7998 12.5 3.2998ZM8.30005 25C8.30005 15.8 15.8 8.2998 25 8.2998C34.2 8.2998 41.7001 15.8 41.7001 25C41.6001 34.2 34.2 41.7 25 41.7C15.8 41.7 8.30005 34.2 8.30005 25ZM45.8 13.2998C45.8 12.8998 46.2001 12.5 46.7001 12.5C47.1001 12.5 47.5 12.8998 47.5 13.2998C47.5 13.7998 47.1001 14.2 46.7001 14.2C46.2001 14.2 45.8 13.7998 45.8 13.2998ZM2.5 13.2998C2.5 12.8998 2.90005 12.5 3.30005 12.5C3.80005 12.5 4.20007 12.8998 4.20007 13.2998C4.20007 13.7998 3.80005 14.2 3.30005 14.2C2.90005 14.2 2.5 13.7998 2.5 13.2998ZM46.7001 25C46.7001 24.5 47 24.2 47.5 24.2C47.9 24.2 48.3 24.5 48.3 25C48.3 25.5 47.9 25.7998 47.5 25.7998C47 25.7998 46.7001 25.5 46.7001 25ZM1.70007 25C1.70007 24.5 2 24.2 2.5 24.2C3 24.2 3.30005 24.5 3.30005 25C3.30005 25.5 3 25.7998 2.5 25.7998C2 25.7998 1.70007 25.5 1.70007 25ZM45.8 36.7C45.8 36.2 46.2001 35.7998 46.7001 35.7998C47.1001 35.7998 47.5 36.2 47.5 36.7C47.5 37.1 47.1001 37.5 46.7001 37.5C46.2001 37.5 45.8 37.1 45.8 36.7ZM2.5 36.7C2.5 36.2 2.90005 35.7998 3.30005 35.7998C3.80005 35.7998 4.20007 36.2 4.20007 36.7C4.20007 37.1 3.80005 37.5 3.30005 37.5C2.90005 37.5 2.5 37.1 2.5 36.7ZM35.8 46.7C35.8 46.2 36.2001 45.7998 36.7001 45.7998C37.1001 45.7998 37.5 46.2 37.5 46.7C37.5 47.1 37.1001 47.5 36.7001 47.5C36.2001 47.5 35.8 47.1 35.8 46.7ZM12.5 46.7C12.5 46.2 12.9 45.7998 13.3 45.7998C13.8 45.7998 14.2001 46.2 14.2001 46.7C14.2001 47.1 13.8 47.5 13.3 47.5C12.9 47.5 12.5 47.1 12.5 46.7ZM24.2001 47.5C24.2001 47 24.5 46.7 25 46.7C25.5 46.7 25.8 47 25.8 47.5C25.8 48 25.5 48.2998 25 48.2998C24.5 48.2998 24.2001 48 24.2001 47.5ZM11.7001 23.2998C11.7001 25.4998 12.2001 27.4999 13.1001 29.3999C13.3001 29.6999 13.3 29.9 13.3 30.2V31.7C13.3 33.5 14.8001 35 16.7001 35H18.3V36.7C18.3 38.5 19.8001 40 21.7001 40H28.3C30.2 40 31.7001 38.5 31.7001 36.7V35H33.3C35.2001 35 36.7001 33.5 36.7001 31.7V30.2C36.7001 29.9 36.7 29.6999 36.9 29.3999C37.8 27.4999 38.3 25.4998 38.3 23.2998C38.3 15.9998 32.4 10 25 10C17.6 10 11.7001 15.9998 11.7001 23.2998ZM15 31.7V30.2C15 29.7 14.9001 29.1 14.6001 28.7C13.8001 27 13.3 25.1998 13.3 23.2998C13.3 16.8998 18.6 11.7 25 11.7C31.4 11.7 36.7001 16.8998 36.7001 23.2998C36.7001 25.1998 36.2 27 35.4 28.7C35.1 29.1 35 29.7 35 30.2V31.7C35 32.6 34.2001 33.2998 33.3 33.2998H31.7001C30.7001 33.2998 30 34.1 30 35V36.7C30 37.6 29.2 38.2998 28.3 38.2998H21.7001C20.7001 38.2998 20 37.6 20 36.7V35C20 34.1 19.2 33.2998 18.3 33.2998H16.7001C15.7001 33.2998 15 32.6 15 31.7ZM25.8 26.2998C25.8 28.3998 27.5001 30.0999 29.6001 30.0999C31.6001 30.0999 33.3 28.3998 33.3 26.2998C33.3 24.4998 31.9001 23.2998 29.6001 23.2998C27.2001 23.2998 25.8 24.4998 25.8 26.2998ZM27.5 26.2998C27.5 25.9998 27.5001 25 29.6001 25C31.7001 25 31.7001 25.9998 31.7001 26.2998C31.6001 27.4998 30.7001 28.3998 29.6001 28.2998C29.6001 28.2998 29.6 28.2998 29.5 28.2998C28.4 28.2998 27.5 27.3998 27.5 26.2998ZM16.7001 26.2998C16.7001 28.3998 18.3 30.0999 20.4 30.0999C22.5 30.0999 24.2001 28.3998 24.2001 26.2998C24.2001 24.4998 22.8 23.2998 20.4 23.2998C18.1 23.2998 16.7001 24.4998 16.7001 26.2998ZM18.3 26.2998C18.3 25.9998 18.3 25 20.4 25C22.5 25 22.5 25.9998 22.5 26.2998C22.5 27.4998 21.5 28.3998 20.4 28.2998C19.3 28.2998 18.3 27.3998 18.3 26.2998ZM23.1001 31.2998L22.7001 32.3999C22.4001 33.1999 22.5 34.0998 22.9 34.7998C23.4 35.4998 24.2 35.8998 25 35.7998C25.8 35.7998 26.6001 35.3998 27.1001 34.7998C27.5001 34.0998 27.6 33.1999 27.3 32.3999L26.9 31.2998C26.6 30.4998 25.8 30 25 30C24.2 30 23.4001 30.4998 23.1001 31.2998ZM25 34.2C24.7 34.2 24.5 33.9998 24.3 33.7998C24.1 33.5998 24.1001 33.3 24.2001 33L24.7001 31.8999C24.7001 31.7999 24.8 31.7 25 31.7C25.1 31.7 25.3 31.7999 25.3 31.8999L25.8 33C25.9 33.3 25.8001 33.5998 25.7001 33.7998C25.5001 33.9998 25.3 34.2 25 34.2Z" fill="white"/>
</mask>
<g mask="url(#mask0_2013_1618)">
<path d="M-1527.7 -3426.1H392.3V2523.73H-1527.7V-3426.1Z" fill="url(#paint0_linear_2013_1618)"/>
</g>
<defs>
<linearGradient id="paint0_linear_2013_1618" x1="-0.0118883" y1="25.009" x2="49.9881" y2="25.009" gradientUnits="userSpaceOnUse">
<stop stop-color="#9A20AA"/>
<stop offset="0.170238" stop-color="#AF2AC3"/>
<stop offset="0.320238" stop-color="#BD30D4"/>
<stop offset="0.477381" stop-color="#C835E1"/>
<stop offset="0.670238" stop-color="#D038EA"/>
<stop offset="0.836905" stop-color="#D33AEE"/>
<stop offset="1" stop-color="#D43AEF"/>
</linearGradient>
</defs>
</svg>