<svg width="50" height="50" viewBox="0 0 50 50" fill="none" xmlns="http://www.w3.org/2000/svg">
<mask id="mask0_2013_1660" style="mask-type:luminance" maskUnits="userSpaceOnUse" x="0" y="0" width="50" height="50">
<path d="M18.5 3.30005C16.6 5.50005 15.2 8.79995 14.5 12.7C14.5 13 14.6 13.1999 14.9 13.3999C15.5 13.7999 16.1 14.2999 16.7 15.0999C14.7 16.4999 13 18.3999 11.5 21.0999H8.79999V18.5C9.79999 18.2 10.5 17.3 10.5 16.2C10.5 14.9 9.39998 13.8 8.09998 13.8C6.79998 13.8 5.70001 14.9 5.70001 16.2C5.70001 17.3 6.39996 18.2 7.39996 18.5V21.8C7.39996 22.2 7.69998 22.5 8.09998 22.5H10.8C10.5 23 10.3 23.5 10.1 24H6.39996L4.39996 22C4.59996 21.7 4.70001 21.2999 4.70001 20.8999C4.70001 19.5999 3.69996 18.5 2.39996 18.5C1.09996 18.5 0 19.5999 0 20.8999C0 22.1999 1.09996 23.2 2.39996 23.2C2.79996 23.2 3.1 23.1 3.5 23L5.59998 25.2C5.79998 25.3 5.99998 25.3999 6.09998 25.3999H9.5C9.3 25.8999 9.1 26.4 9 26.8H6.09998C5.99998 26.8 5.79998 26.9 5.59998 27L3.5 29.2C3.1 29 2.79996 28.8999 2.39996 28.8999C1.09996 28.8999 0 30 0 31.3C0 32.6 1.09996 33.7 2.39996 33.7C3.69996 33.7 4.70001 32.6 4.70001 31.3C4.70001 30.9 4.59996 30.5 4.39996 30.2L6.39996 28.2H8.70001C8.60001 28.8 8.60001 29.3 8.70001 29.7H8.09998C7.69998 29.7 7.39996 29.9999 7.39996 30.3999V33.7C6.39996 34 5.70001 34.9 5.70001 36C5.70001 37.3 6.79998 38.3999 8.09998 38.3999C9.39998 38.3999 10.5 37.3 10.5 36C10.5 34.9 9.79999 34 8.79999 33.7V31.0999H9.29999C9.89999 31.7999 10.8 32.2 12 32.5C12.8 32.6 13.8 32.7999 14.9 32.8999V34C14.9 34.7 15.4 35.2 16.1 35.2H17.3V40.3999C16.4 40.6999 15.7 41.5999 15.7 42.5999C15.7 43.8999 16.7 45 18 45C19.3 45 20.4 43.8999 20.4 42.5999C20.4 41.5999 19.7 40.6999 18.7 40.3999V35.2H21.6V38.5999C21.6 38.9999 22 39.3 22.3 39.3C22.7 39.3 23 38.9999 23 38.5999V35.2H27V38L24.5 40.3999C24.4 40.5999 24.3 40.6999 24.3 40.8999V44.5999C23.3 44.8999 22.6 45.7001 22.6 46.8C22.6 48.1 23.7 49.2 25 49.2C26.3 49.2 27.4 48.1 27.4 46.8C27.4 45.7001 26.7 44.8999 25.7 44.5999V41.2L28.2 38.7C28.3 38.6 28.4 38.4 28.4 38.3V35.2H31.3V40.3999C30.3 40.6999 29.6 41.5999 29.6 42.5999C29.6 43.8999 30.7 45 32 45C33.3 45 34.3 43.8999 34.3 42.5999C34.3 41.5999 33.6 40.6999 32.7 40.3999V35.2H33.9C34.6 35.2 35.1 34.7 35.1 34V32.8999C36.2 32.7999 37.2 32.6 38 32.5C39.2 32.2 40.1 31.7999 40.7 31.0999H41.2V33.7C40.3 34 39.6 34.9 39.6 36C39.6 37.3 40.6 38.3999 41.9 38.3999C43.2 38.3999 44.3 37.3 44.3 36C44.3 34.9 43.6 34 42.6 33.7V30.3999C42.6 29.9999 42.3 29.7 41.9 29.7H41.3C41.4 29.3 41.4 28.8 41.3 28.2H43.6L45.6 30.2C45.4 30.5 45.3 30.9 45.3 31.3C45.3 32.6 46.3 33.7 47.6 33.7C48.9 33.7 50 32.6 50 31.3C50 30 48.9 28.8999 47.6 28.8999C47.2 28.8999 46.9 29 46.5 29.2L44.4 27C44.2 26.9 44 26.8 43.9 26.8H41C40.9 26.4 40.7 25.8999 40.5 25.3999H43.9C44 25.3999 44.2 25.3 44.4 25.2L46.5 23C46.9 23.1 47.2 23.2 47.6 23.2C48.9 23.2 50 22.1999 50 20.8999C50 19.5999 48.9 18.5 47.6 18.5C46.3 18.5 45.3 19.5999 45.3 20.8999C45.3 21.2999 45.4 21.7 45.6 22L43.6 24H39.9C39.7 23.5 39.5 23 39.2 22.5H41.9C42.3 22.5 42.6 22.2 42.6 21.8V18.5C43.6 18.2 44.3 17.3 44.3 16.2C44.3 14.9 43.2 13.8 41.9 13.8C40.6 13.8 39.6 14.9 39.6 16.2C39.6 17.3 40.3 18.2 41.2 18.5V21.0999H38.5C37 18.3999 35.3 16.4999 33.3 15.0999C33.9 14.2999 34.5 13.7999 35.1 13.3999C35.4 13.1999 35.5 13 35.5 12.7C34.8 8.79995 33.4 5.50005 31.5 3.30005C29.7 1.10005 27.4 0 25 0C22.6 0 20.3 1.10005 18.5 3.30005ZM19.6 4.19995C21.1 2.29995 23 1.3999 25 1.3999C27 1.3999 28.9 2.29995 30.4 4.19995C31.8 5.79995 32.9 7.99985 33.6 10.5999C31 8.19985 28 7 25 7C22 7 19.1 8.19985 16.4 10.5999C17.1 7.99985 18.2 5.79995 19.6 4.19995ZM22.1 8.80005C23.1 8.50005 24 8.3999 25 8.3999C26 8.3999 26.9 8.50005 27.9 8.80005C27 9.00005 26 9.09985 25 9.09985C24 9.09985 23 9.00005 22.1 8.80005ZM29.8 9.69995C30.1 11.7 29.5 13.8999 28.3 15.3999C27.7 16.1999 26.6 17.2 25 17.3C23.4 17.2 22.3 16.1999 21.7 15.3999C20.5 13.8999 19.9 11.7 20.2 9.69995C21.7 10.2 23.3 10.5 25 10.5C26.7 10.5 28.3 10.2 29.8 9.69995ZM25 18.7C26.7 18.6 28.2 17.8 29.4 16.3C30.6 14.7 31.3 12.6 31.2 10.5C32.1 11.1 32.9 11.8 33.7 12.7C32 14.1 30.4 16.6 28.7 20.7H21.7C19.8 16.7 18 14.1 16.3 12.7C17.1 11.8 17.9 11.1 18.8 10.5C18.7 12.6 19.4 14.7 20.6 16.3C21.8 17.8 23.3 18.6 25 18.7ZM40.9 16.2C40.9 15.7 41.4 15.2 41.9 15.2C42.4 15.2 42.9 15.7 42.9 16.2C42.9 16.7 42.4 17.2 41.9 17.2C41.4 17.2 40.9 16.7 40.9 16.2ZM7.09998 16.2C7.09998 15.7 7.59998 15.2 8.09998 15.2C8.59998 15.2 9.09998 15.7 9.09998 16.2C9.09998 16.7 8.59998 17.2 8.09998 17.2C7.59998 17.2 7.09998 16.7 7.09998 16.2ZM12.3 31.0999C11.2 30.8999 10.5 30.5 10.3 30C9.79999 29.2 9.99999 27.8999 10.8 25.8999C12.6 21.1999 14.8 18.1 17.5 16.2C18.4 17.4 19.3 18.9 20.2 20.7H16.1C15.4 20.7 14.9 21.2999 14.9 21.8999V31.5C13.9 31.4 13 31.2999 12.3 31.0999ZM32.5 16.2C35.2 18.1 37.4 21.1999 39.2 25.8999C40 27.8999 40.2 29.2 39.8 30C39.5 30.5 38.8 30.8999 37.7 31.0999C37 31.2999 36.1 31.4 35.1 31.5V21.8999C35.1 21.2999 34.6 20.7 33.9 20.7H30.2C31 18.9 31.8 17.4 32.5 16.2ZM46.7 20.8999C46.7 20.2999 47.1 19.8999 47.6 19.8999C48.2 19.8999 48.6 20.2999 48.6 20.8999C48.6 21.3999 48.2 21.8999 47.6 21.8999C47.1 21.8999 46.7 21.3999 46.7 20.8999ZM1.39996 20.8999C1.39996 20.2999 1.79996 19.8999 2.39996 19.8999C2.89996 19.8999 3.29999 20.2999 3.29999 20.8999C3.29999 21.3999 2.89996 21.8999 2.39996 21.8999C1.79996 21.8999 1.39996 21.3999 1.39996 20.8999ZM16.3 22.0999H33.7V33.8H16.3V22.0999ZM46.7 31.3C46.7 30.8 47.1 30.3 47.6 30.3C48.2 30.3 48.6 30.8 48.6 31.3C48.6 31.8 48.2 32.3 47.6 32.3C47.1 32.3 46.7 31.8 46.7 31.3ZM1.39996 31.3C1.39996 30.8 1.79996 30.3 2.39996 30.3C2.89996 30.3 3.29999 30.8 3.29999 31.3C3.29999 31.8 2.89996 32.3 2.39996 32.3C1.79996 32.3 1.39996 31.8 1.39996 31.3ZM40.9 36C40.9 35.5 41.4 35 41.9 35C42.4 35 42.9 35.5 42.9 36C42.9 36.5 42.4 37 41.9 37C41.4 37 40.9 36.5 40.9 36ZM7.09998 36C7.09998 35.5 7.59998 35 8.09998 35C8.59998 35 9.09998 35.5 9.09998 36C9.09998 36.5 8.59998 37 8.09998 37C7.59998 37 7.09998 36.5 7.09998 36ZM31 42.5999C31 42.0999 31.4 41.7 32 41.7C32.5 41.7 32.9 42.0999 32.9 42.5999C32.9 43.1999 32.5 43.5999 32 43.5999C31.4 43.5999 31 43.1999 31 42.5999ZM17.1 42.5999C17.1 42.0999 17.5 41.7 18 41.7C18.6 41.7 19 42.0999 19 42.5999C19 43.1999 18.6 43.5999 18 43.5999C17.5 43.5999 17.1 43.1999 17.1 42.5999ZM24 46.8C24 46.3 24.5 45.8 25 45.8C25.5 45.8 26 46.3 26 46.8C26 47.3 25.5 47.8 25 47.8C24.5 47.8 24 47.3 24 46.8ZM22.6 28C22.6 29.1 23.7 30 25 30C26.3 30 27.4 29.1 27.4 28C27.4 26.9 26.3 26 25 26C23.7 26 22.6 26.9 22.6 28ZM24 28C24 27.7 24.4 27.3 25 27.3C25.6 27.3 26 27.7 26 28C26 28.3 25.6 28.5999 25 28.5999C24.4 28.5999 24 28.3 24 28Z" fill="white"/>
</mask>
<g mask="url(#mask0_2013_1660)">
<path d="M-633.2 -3740.3H1286.8V2209.53H-633.2V-3740.3Z" fill="url(#paint0_linear_2013_1660)"/>
</g>
<defs>
<linearGradient id="paint0_linear_2013_1660" x1="0.00161536" y1="24.5782" x2="50.0016" y2="24.5782" gradientUnits="userSpaceOnUse">
<stop stop-color="#9A20AA"/>
<stop offset="0.170238" stop-color="#AF2AC3"/>
<stop offset="0.320238" stop-color="#BD30D4"/>
<stop offset="0.477381" stop-color="#C835E1"/>
<stop offset="0.670238" stop-color="#D038EA"/>
<stop offset="0.836905" stop-color="#D33AEE"/>
<stop offset="1" stop-color="#D43AEF"/>
</linearGradient>
</defs>
</svg>