<svg width="50" height="50" viewBox="0 0 50 50" fill="none" xmlns="http://www.w3.org/2000/svg">
<mask id="mask0_2013_1706" style="mask-type:luminance" maskUnits="userSpaceOnUse" x="0" y="0" width="50" height="50">
<path d="M41.7 2.69995H38.9C38.8 2.69995 38.7 2.69995 38.6 2.69995C38.5 2.69995 38.4 2.7999 38.4 2.8999L35.3 5.8999L34.7 5.3999C34 4.6999 33 4.6999 32.3 5.3999C30.6 6.9999 27.8 5.9 27.8 3.5C27.8 2.6 27.1 1.80005 26.1 1.80005H23.1C22.2 1.80005 21.4 2.6 21.4 3.5C21.4 5.9 18.6 6.9999 16.9 5.3999C16.2 4.6999 15.2 4.6999 14.5 5.3999L13.9 5.8999L10.8 2.8999C10.8 2.7999 10.7 2.69995 10.6 2.69995C10.5 2.69995 10.4 2.69995 10.3 2.69995H8.29999C7.89999 1.09995 6.6 0 5 0C3.1 0 1.59998 1.4999 1.59998 3.3999C1.59998 5.1999 3.1 6.69995 5 6.69995C6.6 6.69995 7.89999 5.59985 8.29999 4.09985H10.1L12.9 6.8999L12.4 7.5C11.7 8.2 11.7 9.2999 12.4 9.8999C14 11.5999 12.8 14.3999 10.5 14.3999C9.6 14.3999 8.79999 15.1999 8.79999 16.0999V16.8999H6.70001C6.40001 15.3999 4.99996 14.2 3.39996 14.2C1.49996 14.2 0 15.7999 0 17.5999C0 19.4999 1.49996 21 3.39996 21C4.99996 21 6.40001 19.9 6.70001 18.3H8.79999V19.0999C8.79999 20.0999 9.6 20.8 10.5 20.8C12.8 20.8 14 23.7 12.4 25.3C11.7 26 11.7 27.1 12.4 27.7L12.9 28.3L10.1 31.2H8.29999C7.89999 29.6 6.6 28.5 5 28.5C3.1 28.5 1.59998 29.9999 1.59998 31.8999C1.59998 33.6999 3.1 35.3 5 35.3C6.6 35.3 7.89999 34.0999 8.29999 32.5999H10.3C10.4 32.5999 10.5 32.6 10.6 32.5C10.7 32.5 10.8 32.3999 10.8 32.3999L13.9 29.3L14.5 29.8999C15.2 30.4999 16.2 30.4999 16.9 29.8999C18.6 28.1999 21.4 29.4 21.4 31.7C21.4 32.7 22.2 33.3999 23.1 33.3999H26.1C27.1 33.3999 27.8 32.7 27.8 31.7C27.8 29.4 30.6 28.1999 32.3 29.8999C33 30.4999 34 30.4999 34.7 29.8999L35.3 29.3L38.4 32.3999C38.4 32.3999 38.5 32.5 38.6 32.5C38.7 32.6 38.8 32.5999 38.9 32.5999H41.7C42.1 34.0999 43.4 35.3 45 35.3C46.9 35.3 48.4 33.6999 48.4 31.8999C48.4 29.9999 46.9 28.5 45 28.5C43.4 28.5 42.1 29.6 41.7 31.2H39.2L36.3 28.3L36.8 27.7C37.5 27.1 37.5 26 36.8 25.3C35.2 23.7 36.4 20.8 38.7 20.8C39.6 20.8 40.4 20.0999 40.4 19.0999V18.3H43.3C43.6 19.9 45 21 46.6 21C48.5 21 50 19.4999 50 17.5999C50 15.7999 48.5 14.2 46.6 14.2C45 14.2 43.6 15.3999 43.3 16.8999H40.4V16.0999C40.4 15.1999 39.6 14.3999 38.7 14.3999C36.4 14.3999 35.2 11.5999 36.8 9.8999C37.5 9.2999 37.5 8.2 36.8 7.5L36.3 6.8999L39.2 4.09985H41.7C42.1 5.59985 43.4 6.69995 45 6.69995C46.9 6.69995 48.4 5.1999 48.4 3.3999C48.4 1.4999 46.9 0 45 0C43.4 0 42.1 1.09995 41.7 2.69995ZM43.1 3.3999C43.1 2.2999 43.9 1.3999 45 1.3999C46.1 1.3999 47 2.2999 47 3.3999C47 4.3999 46.1 5.30005 45 5.30005C43.9 5.30005 43.1 4.3999 43.1 3.3999ZM3 3.3999C3 2.2999 3.9 1.3999 5 1.3999C6.1 1.3999 6.89996 2.2999 6.89996 3.3999C6.89996 4.3999 6.1 5.30005 5 5.30005C3.9 5.30005 3 4.3999 3 3.3999ZM22.8 3.5C22.8 3.4 22.9 3.19995 23.1 3.19995H26.1C26.3 3.19995 26.4 3.4 26.4 3.5C26.4 7.1 30.8 8.8999 33.3 6.3999C33.4 6.2999 33.6 6.2999 33.7 6.3999L35.8 8.5C36 8.6 36 8.7999 35.8 8.8999C33.3 11.4999 35.1 15.8 38.7 15.8C38.9 15.8 39 15.9999 39 16.0999V19.0999C39 19.2999 38.9 19.3999 38.7 19.3999C35.1 19.3999 33.3 23.8 35.8 26.3C36 26.4 36 26.6 35.8 26.7L33.7 28.8999C33.6 28.9999 33.4 28.9999 33.3 28.8999C30.8 26.2999 26.4 28.1 26.4 31.7C26.4 31.9 26.3 32 26.1 32H23.1C22.9 32 22.8 31.9 22.8 31.7C22.8 28.1 18.4 26.2999 15.9 28.8999C15.8 28.9999 15.6 28.9999 15.5 28.8999L13.4 26.7C13.3 26.6 13.3 26.4 13.4 26.3C15.9 23.8 14.1 19.3999 10.5 19.3999C10.3 19.3999 10.2 19.2999 10.2 19.0999V16.0999C10.2 15.9999 10.3 15.8 10.5 15.8C14.1 15.8 15.9 11.4999 13.4 8.8999C13.3 8.7999 13.3 8.6 13.4 8.5L15.5 6.3999C15.6 6.2999 15.8 6.2999 15.9 6.3999C16.7 7.1999 17.7 7.59985 18.7 7.59985C20.8 7.59985 22.8 6 22.8 3.5ZM44.7 17.5999C44.7 16.4999 45.5 15.7 46.6 15.7C47.7 15.7 48.6 16.4999 48.6 17.5999C48.6 18.6999 47.7 19.5999 46.6 19.5999C45.5 19.5999 44.7 18.6999 44.7 17.5999ZM1.39996 17.5999C1.39996 16.4999 2.29996 15.7 3.39996 15.7C4.49996 15.7 5.29999 16.4999 5.29999 17.5999C5.29999 18.6999 4.49996 19.5999 3.39996 19.5999C2.29996 19.5999 1.39996 18.6999 1.39996 17.5999ZM43.1 31.8999C43.1 30.7999 43.9 29.8999 45 29.8999C46.1 29.8999 47 30.7999 47 31.8999C47 32.9999 46.1 33.8 45 33.8C43.9 33.8 43.1 32.9999 43.1 31.8999ZM3 31.8999C3 30.7999 3.9 29.8999 5 29.8999C6.1 29.8999 6.89996 30.7999 6.89996 31.8999C6.89996 32.9999 6.1 33.8 5 33.8C3.9 33.8 3 32.9999 3 31.8999ZM15.9 17.5999C15.9 22.3999 19.8 26.3 24.6 26.3C29.4 26.3 33.3 22.3999 33.3 17.5999C33.3 12.7999 29.4 8.8999 24.6 8.8999C19.8 8.8999 15.9 12.7999 15.9 17.5999ZM17.3 17.5999C17.3 13.5999 20.6 10.3999 24.6 10.3999C28.6 10.3999 31.9 13.5999 31.9 17.5999C31.9 21.5999 28.6 24.8999 24.6 24.8999C20.6 24.8999 17.3 21.5999 17.3 17.5999ZM24.5 13.5C22.2 13.5 20 14.7 17.8 17.2C17.6 17.4 17.6 17.7999 17.8 18.0999C20 20.5999 22.2 21.8 24.5 21.8C26.7 21.8 29 20.5999 31.4 18.0999C31.6 17.7999 31.6 17.3999 31.4 17.0999C29 14.5999 26.7 13.5 24.5 13.5ZM23.4 15C22.4 15.4 21.7 16.3999 21.7 17.5999C21.7 18.7999 22.4 19.8 23.4 20.3C22 19.9 20.7 19.0999 19.3 17.5999C20.7 16.1999 22 15.3 23.4 15ZM27.5 17.5999C27.5 16.4999 26.9 15.5999 26 15.0999C27.3 15.4999 28.5 16.2999 29.8 17.5999C28.5 18.8999 27.3 19.7999 26 20.0999C26.9 19.6999 27.5 18.6999 27.5 17.5999ZM23.1 17.5999C23.1 16.7999 23.8 16.2 24.6 16.2C25.4 16.2 26.1 16.7999 26.1 17.5999C26.1 18.3999 25.4 19.0999 24.6 19.0999C23.8 19.0999 23.1 18.3999 23.1 17.5999ZM32.6 36.3999C30.1 37.3999 27.4 38 24.6 38C21.8 38 19.1 37.3999 16.6 36.3999C16.2 36.2999 15.8 36.5 15.7 36.8C15.5 37.2001 15.7 37.6 16.1 37.7C18.7 38.7999 21.6 39.3999 24.6 39.3999C27.6 39.3999 30.5 38.7999 33.1 37.7C33.5 37.6 33.7 37.2001 33.5 36.8C33.4 36.5 33.2 36.3999 32.9 36.3999C32.8 36.3999 32.7 36.3999 32.6 36.3999ZM35.4 40.8999C32.1 42.3999 28.5 43.2 24.6 43.2C20.7 43.2 17.1 42.3999 13.8 40.8999C13.4 40.6999 13 40.9 12.8 41.2C12.7 41.6 12.8 41.9999 13.2 42.0999C16.7 43.6999 20.5 44.5999 24.6 44.5999C28.7 44.5999 32.5 43.6999 36 42.0999C36.4 41.9999 36.5 41.6 36.4 41.2C36.3 40.9 36 40.8 35.7 40.8C35.6 40.8 35.5 40.7999 35.4 40.8999ZM38.5 45.2C34.3 47.2999 29.6 48.3999 24.6 48.3999C19.6 48.3999 14.9 47.2999 10.7 45.2C10.3 45.1 9.90001 45.1999 9.70001 45.5999C9.50001 45.8999 9.7 46.3 10 46.5C14.4 48.7 19.4 49.8999 24.6 49.8999C29.8 49.8999 34.8 48.7 39.2 46.5C39.5 46.3 39.7 45.8999 39.5 45.5999C39.4 45.2999 39.1 45.2 38.9 45.2C38.8 45.2 38.6 45.2 38.5 45.2Z" fill="white"/>
</mask>
<g mask="url(#mask0_2013_1706)">
<path d="M-633.2 -3269.3H1286.8V2680.53H-633.2V-3269.3Z" fill="url(#paint0_linear_2013_1706)"/>
</g>
<defs>
<linearGradient id="paint0_linear_2013_1706" x1="0.00161536" y1="24.9248" x2="50.0016" y2="24.9248" gradientUnits="userSpaceOnUse">
<stop stop-color="#9A20AA"/>
<stop offset="0.170238" stop-color="#AF2AC3"/>
<stop offset="0.320238" stop-color="#BD30D4"/>
<stop offset="0.477381" stop-color="#C835E1"/>
<stop offset="0.670238" stop-color="#D038EA"/>
<stop offset="0.836905" stop-color="#D33AEE"/>
<stop offset="1" stop-color="#D43AEF"/>
</linearGradient>
</defs>
</svg>