<svg width="50" height="50" viewBox="0 0 50 50" fill="none" xmlns="http://www.w3.org/2000/svg">
<mask id="mask0_2013_1604" style="mask-type:luminance" maskUnits="userSpaceOnUse" x="0" y="0" width="50" height="50">
<path d="M3.70007 0C1.70007 0 0 1.70005 0 3.80005V46.3C0 48.4 1.70007 50 3.70007 50H46.3C48.3 50 50 48.4 50 46.3V21.9001C50 21.5001 49.7001 21.2 49.3 21.2C48.9 21.2 48.5 21.5001 48.5 21.9001V46.3C48.5 47.5 47.5 48.6001 46.3 48.6001H3.70007C2.50007 48.6001 1.5 47.5 1.5 46.3V7.30005H17.1001C18.7001 7.30005 20 6.1 20 4.5V2.69995C20 1.99995 20.6001 1.5 21.2001 1.5H28.7001C29.4001 1.5 30 1.99995 30 2.69995V4.5C30 6.1 31.2 7.30005 32.8 7.30005H48.5V18.5C48.5 18.9 48.9 19.2 49.3 19.2C49.7001 19.2 50 18.9 50 18.5V3.80005C50 1.70005 48.3 0 46.3 0H3.70007ZM31.4 4.5V2.69995C31.4 2.29995 31.3001 1.9 31.1001 1.5H46.3C47.5 1.5 48.5 2.50005 48.5 3.80005V5.90015H32.8C32.1 5.90015 31.4 5.2 31.4 4.5ZM1.5 3.80005C1.5 2.50005 2.50007 1.5 3.70007 1.5H18.8C18.7 1.9 18.6001 2.29995 18.6001 2.69995V4.5C18.6001 5.2 17.9001 5.90015 17.1001 5.90015H1.5V3.80005ZM8.80005 3.69995C8.80005 4.09995 9.1 4.40015 9.5 4.40015C9.9 4.40015 10.2001 4.09995 10.2001 3.69995C10.2001 3.29995 9.9 3 9.5 3C9.1 3 8.80005 3.29995 8.80005 3.69995ZM5.80005 3.69995C5.80005 4.09995 6.2001 4.40015 6.6001 4.40015C7.0001 4.40015 7.30005 4.09995 7.30005 3.69995C7.30005 3.29995 7.0001 3 6.6001 3C6.2001 3 5.80005 3.29995 5.80005 3.69995ZM2.90002 3.69995C2.90002 4.09995 3.20007 4.40015 3.70007 4.40015C4.10007 4.40015 4.40002 4.09995 4.40002 3.69995C4.40002 3.29995 4.10007 3 3.70007 3C3.20007 3 2.90002 3.29995 2.90002 3.69995ZM19.6001 12.7C18.8001 12.7 18.2001 13.2 18.2001 14C17.9001 16.6 15.7001 18.6001 13.1001 18.6001C12.7001 18.6001 12.3001 18.7 12.1001 19C11.8001 19.3 11.7001 19.6 11.7001 20V23.6001C11.7001 27.8001 12.9001 31.8 15.2001 35.3C15.4001 35.7001 15.9001 35.8 16.2001 35.5C16.6001 35.3 16.7 34.9 16.4 34.5C14.3 31.3 13.1001 27.5001 13.1001 23.6001V20.1001C16.5001 20.1001 19.3001 17.5001 19.6001 14.1001H30.4C30.7 17.5001 33.5 20.1001 36.9 20.1001V23.6001C36.9 31.4001 32.2 38.6 25 41.7C22.6 40.6 20.4 39.1 18.5 37.2C18.3 36.9 17.8 36.9001 17.5 37.1001C17.2 37.4001 17.2 37.9 17.5 38.2C19.5 40.2999 21.8 41.9001 24.4 43.1001C24.6 43.1001 24.8 43.2 25 43.2C25.2 43.2 25.4001 43.1001 25.6001 43.1001C33.3001 39.7001 38.3 32.0001 38.3 23.6001V20C38.3 19.6 38.2 19.3 37.9 19C37.6 18.7 37.3 18.6001 36.9 18.6001C34.3 18.6001 32 16.6 31.8 14C31.8 13.2 31.1 12.7 30.4 12.7H19.6001ZM20.3 23V25.4001C19.3 25.7001 18.6001 26.6 18.6001 27.7V32.2C18.6001 33.6 19.7001 34.7 21.1001 34.7H28.9C30.2 34.7 31.3 33.6 31.3 32.2V27.7C31.3 26.6 30.7001 25.7001 29.7001 25.4001V23C29.7001 21.7 29.2 20.5001 28.3 19.6001C27.4 18.7001 26.2 18.2 25 18.2C22.4 18.2 20.3 20.4 20.3 23ZM21.7001 23C21.7001 21.2 23.2 19.7 25 19.7C25.9 19.7 26.7 20 27.3 20.7C27.9 21.3 28.2001 22.1 28.2001 23V25.2H21.7001V23ZM20.1001 32.2V27.7C20.1001 27.2 20.6001 26.7 21.1001 26.7H28.9C29.4 26.7 29.9 27.2 29.9 27.7V32.2C29.9 32.7999 29.4 33.2 28.9 33.2H21.1001C20.6001 33.2 20.1001 32.7999 20.1001 32.2Z" fill="white"/>
</mask>
<g mask="url(#mask0_2013_1604)">
<path d="M-1527.7 -3269.2H392.3V2680.63H-1527.7V-3269.2Z" fill="url(#paint0_linear_2013_1604)"/>
</g>
<defs>
<linearGradient id="paint0_linear_2013_1604" x1="-0.0118883" y1="25.0249" x2="49.9881" y2="25.0249" gradientUnits="userSpaceOnUse">
<stop stop-color="#9A20AA"/>
<stop offset="0.170238" stop-color="#AF2AC3"/>
<stop offset="0.320238" stop-color="#BD30D4"/>
<stop offset="0.477381" stop-color="#C835E1"/>
<stop offset="0.670238" stop-color="#D038EA"/>
<stop offset="0.836905" stop-color="#D33AEE"/>
<stop offset="1" stop-color="#D43AEF"/>
</linearGradient>
</defs>
</svg>