<svg width="50" height="58" viewBox="0 0 50 58" fill="none" xmlns="http://www.w3.org/2000/svg">
<mask id="mask0_2013_1632" style="mask-type:luminance" maskUnits="userSpaceOnUse" x="0" y="0" width="50" height="58">
<path d="M24.8 0L17.6001 1.5C17.0001 1.7 16.6001 2.20005 16.7001 2.80005C16.8001 3.40005 17.4 3.8002 18 3.7002L25 2.30005L32.3 3.80005V7.2002L25.2001 5.7002C25.1001 5.7002 24.9 5.7002 24.8 5.7002L6.5 9.5C5.9 9.6 5.6001 10.1001 5.6001 10.6001V24.2002C5.6001 30.4002 7.50007 36.3 11.2001 41.3C14.6001 45.9 19.2001 49.4 24.6001 51.3C24.9001 51.3 25.1 51.3 25.4 51.3C30.7 49.4 35.4 45.9 38.8 41.3C42.5 36.3 44.4 30.4002 44.4 24.2002V10.6001C44.4 10.1001 44 9.6 43.5 9.5L40 8.80005L40.8 5.5L47.8 7V24.2002C47.8 31.1002 45.6 37.7002 41.5 43.2002C37.4 48.8002 31.8001 52.8 25.2001 54.8C25.1001 54.9 25 54.9001 25 54.9001C24.9 54.9001 24.9 54.9 24.8 54.8C18.2 52.8 12.6 48.8002 8.5 43.2002C4.4 37.7002 2.20007 31.1002 2.20007 24.2002V7L8.5 5.7002C9.1 5.6002 9.50005 5.00015 9.30005 4.40015C9.20005 3.80015 8.6 3.4 8 3.5L0.900024 5C0.400024 5.1 0 5.5001 0 6.1001V24.2002C0 31.6002 2.30007 38.6001 6.70007 44.6001C11.1001 50.5001 17.1001 54.8 24.1001 57C24.4001 57 24.7 57.2002 25 57.2002C25.3 57.2002 25.6 57.1 25.8 57C32.9 54.8 38.9 50.5001 43.3 44.6001C47.7001 38.6001 50 31.6002 50 24.2002V6.1001C50 5.5001 49.6001 5.1 49.1001 5L40.2001 3.1001C39.6001 3.0001 39.1 3.4 38.9 4L36 15.8L26.3 22.1001C26.1 22.2001 26 22.4001 25.9 22.6001L23.9 27.1001V21.3L34 13.6001C34.3 13.4001 34.5 13.1002 34.5 12.7002V8.6001V2.90015C34.5 2.40015 34.1001 1.90005 33.6001 1.80005L25.2001 0C25.1001 0 25.1 0 25 0C24.9 0 24.8 0 24.8 0ZM13 39.9001C9.6 35.3001 7.80005 29.9002 7.80005 24.2002V11.5L25 8L32.3 9.5V12.2002L22.1001 19.9001C21.8001 20.1001 21.6001 20.4 21.6001 20.8V31.9001L18.5 34.3C18.2 34.5 18 34.8001 18 35.1001V38.5C18 39.1 18.5001 39.6001 19.2001 39.6001C19.8001 39.6001 20.3 39.1 20.3 38.5V35.7002L23.4 33.3C23.6 33.2001 23.7 33.1001 23.8 32.9001L27.8 23.8L37.6001 17.5C37.9001 17.3 38.0001 17.1 38.1001 16.8L39.5 11L42.2001 11.5V24.2002C42.2001 29.9002 40.4 35.3001 37 39.9001C33.9 44.1001 29.8 47.2 25 49C20.2 47.2 16 44.1001 13 39.9001ZM12.6001 2.6001C12.1001 2.9001 11.9001 3.5 12.1001 4C12.3001 4.4 12.8001 4.7002 13.2001 4.7002C13.7001 4.7002 14.1001 4.30015 14.2001 3.90015C14.4001 3.10015 13.8001 2.5 13.1001 2.5C12.9001 2.5 12.8001 2.5001 12.6001 2.6001Z" fill="white"/>
</mask>
<g mask="url(#mask0_2013_1632)">
<path d="M-1527.7 -3579.4H392.3V2370.43H-1527.7V-3579.4Z" fill="url(#paint0_linear_2013_1632)"/>
</g>
<defs>
<linearGradient id="paint0_linear_2013_1632" x1="-0.0118883" y1="28.5944" x2="49.9881" y2="28.5944" gradientUnits="userSpaceOnUse">
<stop stop-color="#9A20AA"/>
<stop offset="0.170238" stop-color="#AF2AC3"/>
<stop offset="0.320238" stop-color="#BD30D4"/>
<stop offset="0.477381" stop-color="#C835E1"/>
<stop offset="0.670238" stop-color="#D038EA"/>
<stop offset="0.836905" stop-color="#D33AEE"/>
<stop offset="1" stop-color="#D43AEF"/>
</linearGradient>
</defs>
</svg>